<?xml version="1.0" standalone="no"?>
<!DOCTYPE svg PUBLIC "-//W3C//DTD SVG 20010904//EN"
 "http://www.w3.org/TR/2001/REC-SVG-20010904/DTD/svg10.dtd">
<svg version="1.0" xmlns="http://www.w3.org/2000/svg"
 width="400.000000pt" height="400.000000pt" viewBox="0 0 400.000000 400.000000"
 preserveAspectRatio="xMidYMid meet">
<metadata>
Created by potrace 1.11, written by Peter Selinger 2001-2013
</metadata>
<g transform="translate(0.000000,400.000000) scale(0.100000,-0.100000)"
fill="#000000" stroke="none">
<path d="M1796 3982 c-8 -23 -14 -23 -63 -5 -7 3 -13 1 -13 -5 0 -5 9 -12 21
-15 13 -4 18 -10 14 -17 -5 -7 -10 -8 -14 -3 -8 12 -46 33 -61 33 -6 0 -8 -11
-5 -27 5 -27 5 -28 -5 -4 l-11 25 -16 -23 c-13 -20 -13 -25 -2 -32 8 -5 10 -9
5 -9 -20 0 9 -19 37 -24 25 -4 27 -2 22 17 -5 19 -4 19 9 -3 8 -14 12 -28 10
-32 -10 -15 29 -58 52 -58 23 0 28 -9 25 -37 -1 -7 3 -13 9 -13 5 0 10 -11 10
-24 0 -13 6 -27 13 -30 9 -3 7 -9 -5 -19 -20 -16 -24 -42 -8 -52 6 -3 10 -14
10 -25 0 -21 20 -31 49 -23 12 3 21 1 21 -6 0 -6 -7 -11 -15 -11 -9 0 -15 -9
-15 -25 0 -18 -5 -25 -19 -25 -29 0 -53 -38 -40 -62 6 -11 7 -27 4 -36 -6 -15
-8 -14 -16 6 -9 23 -24 29 -34 12 -3 -5 -18 -10 -33 -10 -36 0 -56 -14 -49
-34 3 -8 2 -18 -3 -21 -16 -10 -12 -21 20 -55 16 -18 27 -36 24 -41 -3 -6 -21
6 -39 26 -38 40 -50 42 -77 18 -19 -17 -19 -16 -12 11 4 18 2 31 -5 36 -7 4
-15 33 -18 66 -6 55 -5 58 11 45 28 -23 31 -3 6 42 -29 53 -41 66 -47 50 -3
-7 -14 -13 -25 -13 -18 0 -18 1 -4 16 17 17 17 17 21 52 2 16 -6 27 -26 37
-23 12 -27 20 -24 45 4 32 -11 51 -21 26 -4 -9 -18 -16 -33 -16 l-26 0 25 20
c14 10 21 22 17 26 -4 4 -7 2 -7 -4 0 -7 -7 -12 -16 -12 -11 0 -13 6 -9 19 4
14 0 23 -13 30 -13 7 -18 18 -15 34 3 17 -2 26 -20 36 -14 7 -29 11 -35 8 -5
-4 -19 5 -30 18 -26 30 -62 32 -86 6 -13 -14 -15 -28 -10 -61 7 -42 6 -43 -17
-36 -38 12 -48 12 -48 1 -1 -5 4 -11 9 -11 6 -1 16 -2 23 -3 7 -1 3 -9 -10
-20 -26 -22 -29 -31 -10 -31 7 0 18 9 25 20 17 28 32 25 32 -6 0 -14 4 -23 9
-20 5 3 7 15 4 25 -4 16 -1 19 15 14 12 -3 28 -13 37 -23 13 -14 22 -17 41
-10 15 6 26 6 30 -1 3 -6 17 -9 30 -6 27 5 28 1 10 -32 -8 -15 -16 -20 -20
-12 -4 6 -2 11 3 11 6 0 11 5 11 10 0 6 -11 3 -25 -6 -31 -20 -32 -30 -2 -39
13 -4 17 -8 10 -12 -21 -8 -14 -25 7 -18 28 9 60 -3 60 -23 0 -10 9 -24 20
-32 32 -23 24 -47 -21 -70 -31 -16 -38 -24 -30 -34 8 -10 8 -16 -2 -25 -18
-14 -13 -59 8 -75 21 -15 7 -51 -20 -51 -14 0 -21 -8 -23 -27 -3 -22 2 -30 21
-37 31 -12 41 -41 26 -75 -9 -19 -9 -32 -1 -51 9 -20 9 -23 -3 -18 -8 3 -15 9
-15 15 0 5 -10 8 -22 6 -18 -2 -23 -10 -24 -36 -1 -19 -7 -39 -13 -45 -9 -9
-10 -7 -5 7 6 16 4 18 -12 12 -10 -4 -32 -10 -49 -13 -36 -6 -39 -8 -30 -23 5
-8 11 -8 21 1 12 10 12 8 0 -16 -14 -27 -12 -55 5 -55 4 0 6 -7 2 -16 -3 -9
-2 -19 3 -23 5 -3 15 -18 21 -33 10 -23 9 -28 -10 -44 -12 -10 -16 -12 -9 -4
17 20 15 39 -5 47 -9 4 -25 15 -35 25 -14 14 -23 16 -37 9 -12 -7 -21 -7 -29
1 -13 13 -65 2 -57 -12 3 -6 1 -10 -6 -10 -6 0 -9 8 -6 19 9 34 -5 42 -59 32
-45 -9 -76 -4 -46 6 6 3 12 9 12 14 0 15 -21 10 -39 -8 -9 -10 -27 -24 -40
-31 -20 -12 -25 -11 -37 5 -20 26 -17 30 19 26 30 -3 30 -3 8 7 -25 11 -61 5
-61 -11 0 -5 -4 -9 -10 -9 -5 0 -10 6 -10 13 0 7 -13 14 -30 15 -20 2 -30 -2
-30 -12 0 -8 5 -16 10 -18 6 -2 12 -14 13 -28 1 -24 37 -75 37 -53 0 6 7 10
16 9 9 0 19 5 21 12 3 6 -2 12 -11 12 -9 0 -16 5 -16 11 0 7 7 8 18 4 9 -5 25
-8 35 -9 10 0 15 -6 13 -13 -3 -7 -1 -13 4 -13 6 0 10 6 10 14 0 26 42 31 61
7 23 -28 31 -27 23 6 l-7 26 35 -27 c20 -15 42 -24 51 -21 9 4 21 -3 31 -17
12 -17 16 -19 16 -6 0 20 36 27 68 13 25 -11 37 -38 33 -73 -2 -22 0 -23 28
-17 40 8 54 0 41 -25 -12 -22 -3 -50 15 -50 7 0 15 -9 18 -20 8 -30 -27 -26
-48 6 -14 21 -21 24 -48 19 -18 -4 -37 -13 -42 -20 -6 -7 -22 -11 -37 -8 -31
6 -41 -7 -29 -39 9 -21 10 -21 11 -3 0 20 1 20 18 -1 9 -12 27 -27 39 -33 13
-6 20 -17 17 -25 -8 -21 8 -25 36 -10 25 14 25 14 2 14 -19 0 -21 3 -11 19 10
14 9 23 -4 41 -12 17 -13 28 -6 42 11 21 29 24 29 6 0 -7 17 -21 37 -31 33
-17 37 -17 45 -2 5 8 14 13 19 9 5 -3 17 0 25 7 20 16 31 3 16 -21 -7 -12 -8
-21 -2 -25 6 -4 13 1 16 10 4 10 14 15 25 12 11 -3 22 -1 25 4 3 5 14 9 25 9
26 0 24 16 -3 24 -17 4 -20 8 -11 17 8 8 16 8 31 0 26 -14 52 -4 52 20 0 20
15 26 24 10 5 -7 28 -8 58 -2 3 0 11 14 16 30 9 24 7 33 -9 50 -11 12 -16 21
-11 21 21 0 43 -38 36 -64 -7 -30 -57 -76 -83 -76 -21 0 -51 -30 -51 -51 0
-23 31 -61 45 -55 15 6 48 -21 58 -46 7 -20 27 -24 27 -7 0 7 9 9 21 6 31 -8
37 22 8 44 -13 10 -22 20 -19 22 10 10 60 -6 60 -19 0 -17 12 -18 27 -3 8 8
13 7 19 -2 4 -7 3 -14 -4 -17 -15 -5 -16 -22 -2 -22 6 0 13 7 17 16 3 9 16 26
29 39 l22 22 4 -43 c3 -36 0 -44 -14 -44 -9 0 -21 -6 -25 -13 -4 -7 -21 -21
-36 -31 -16 -9 -26 -20 -24 -23 3 -2 16 3 30 11 22 15 26 15 37 1 16 -19 34
-19 50 0 7 8 21 15 31 15 11 0 19 -7 19 -15 0 -8 5 -15 11 -15 6 0 9 -6 6 -12
-2 -7 0 -22 6 -32 8 -16 6 -18 -7 -13 -9 4 -46 12 -82 18 -43 7 -89 25 -136
52 -54 32 -83 42 -128 45 -50 4 -59 2 -76 -19 -19 -24 -57 -31 -82 -15 -9 5
-22 0 -37 -14 -26 -24 -36 -16 -42 34 -4 36 12 48 51 40 21 -5 27 -3 24 7 -3
8 -16 13 -32 11 -14 -1 -26 1 -26 6 0 15 -61 23 -77 11 -7 -7 -11 -14 -8 -17
9 -10 -27 -41 -41 -35 -20 8 -17 -15 6 -39 16 -17 23 -19 32 -10 31 31 38 0 9
-37 -17 -23 -20 -23 -35 -8 -26 26 -55 30 -81 13 -14 -9 -25 -20 -25 -25 0 -8
-86 2 -95 11 -3 3 -1 17 4 30 7 18 6 33 -3 49 -7 14 -11 30 -8 37 2 7 -5 12
-17 12 -12 0 -21 5 -21 10 0 6 -11 15 -25 20 -29 11 -24 44 5 35 10 -3 21 -1
25 5 4 6 -4 10 -19 10 -14 0 -26 4 -26 9 0 10 51 8 68 -3 7 -4 12 -16 12 -27
0 -10 5 -19 11 -19 6 0 10 -10 9 -22 -1 -13 -2 -32 -1 -43 1 -17 3 -18 12 -5
8 12 10 12 8 -5 -1 -11 -1 -31 0 -45 1 -20 3 -22 11 -10 9 13 10 13 10 0 0 -9
10 -16 21 -17 19 -2 20 -1 4 10 -15 11 -13 13 12 12 23 0 27 4 25 20 -2 11 -4
32 -5 46 -2 32 -29 59 -58 59 -20 0 -21 3 -15 51 4 31 3 56 -4 64 -8 9 -6 14
5 19 21 8 43 -2 47 -21 3 -15 4 -15 16 -1 11 14 7 19 -31 37 -51 25 -77 27
-77 6 0 -8 8 -15 17 -15 9 0 13 -3 10 -7 -4 -3 -2 -12 3 -18 8 -9 6 -14 -6
-19 -11 -4 -14 -13 -10 -31 4 -14 2 -25 -2 -25 -16 0 -42 36 -48 68 -4 17 -11
29 -16 26 -5 -3 -15 -1 -22 5 -10 9 -15 8 -20 -4 -3 -8 -12 -15 -21 -15 -19 0
-19 1 4 -46 23 -47 10 -73 -17 -36 -10 13 -21 20 -25 16 -4 -4 -2 -13 5 -21 8
-10 8 -17 -1 -26 -10 -9 -15 -8 -25 6 -7 9 -21 17 -30 17 -9 0 -16 7 -16 15 0
19 -43 20 -58 2 -16 -19 -3 -57 20 -57 13 0 18 -6 16 -17 -2 -13 -11 -17 -30
-15 -14 2 -29 -2 -33 -7 -3 -6 -14 -11 -24 -11 -10 0 -24 -7 -31 -15 -15 -18
-4 -55 17 -55 8 0 23 -10 33 -22 25 -31 55 -14 56 31 1 17 3 33 5 35 9 9 49
-15 49 -29 0 -20 49 -20 56 0 4 8 12 15 20 15 16 0 19 -26 4 -35 -16 -10 -11
-26 8 -24 9 1 28 -3 42 -8 14 -6 30 -8 36 -6 20 8 26 -16 10 -39 -9 -12 -16
-30 -16 -40 0 -10 -4 -18 -10 -18 -5 0 -10 -10 -10 -21 0 -16 -3 -19 -12 -11
-9 7 -19 5 -35 -8 -13 -10 -23 -22 -23 -27 0 -6 -7 -10 -15 -10 -8 0 -15 9
-15 19 0 12 -8 18 -22 19 -13 0 -34 2 -48 4 -14 1 -29 0 -33 -2 -9 -5 31 -43
44 -43 5 0 6 -7 2 -16 -3 -9 0 -20 8 -24 8 -6 0 -8 -24 -7 -31 2 -37 5 -37 25
0 13 -4 20 -10 17 -6 -4 -7 1 -3 10 3 10 0 21 -7 25 -11 7 -10 11 3 24 19 19
47 21 47 4 1 -7 10 -2 20 11 11 13 20 35 19 50 l-1 26 -8 -27 c-12 -40 -19
-48 -37 -41 -14 6 -14 8 3 20 17 13 17 13 0 13 -11 0 -24 -6 -30 -14 -14 -19
-48 -24 -53 -9 -2 6 8 13 24 16 l28 4 -26 2 c-15 0 -33 8 -40 17 -12 15 -10
16 21 10 26 -5 31 -4 20 3 -8 6 -21 11 -29 11 -8 0 -19 7 -26 17 -7 9 -17 13
-23 9 -14 -8 -16 -36 -4 -36 5 0 14 -12 21 -26 l11 -26 -57 4 c-46 2 -58 0
-58 -12 0 -12 13 -14 68 -12 60 3 66 2 61 -13 -4 -10 -1 -21 7 -27 11 -8 11
-9 -3 -5 -27 9 -68 -15 -68 -40 0 -14 9 -24 30 -32 37 -12 40 -4 3 10 -23 9
-25 12 -11 25 19 19 72 24 73 6 0 -7 7 -17 15 -22 13 -9 13 -11 0 -20 -11 -7
-11 -10 -2 -10 7 0 10 -5 7 -10 -4 -7 -14 -6 -28 1 -20 9 -20 9 -5 -4 10 -8
15 -17 11 -20 -3 -4 -11 -3 -17 3 -8 6 -12 3 -12 -8 0 -9 -3 -29 -7 -44 -5
-17 -3 -28 3 -28 5 0 9 6 8 13 -2 6 6 12 17 12 15 0 21 8 23 30 5 40 19 55 51
55 18 0 32 -9 46 -30 20 -30 35 -39 35 -20 0 5 10 9 22 7 29 -3 37 28 8 36
-11 3 -20 12 -20 21 0 13 5 14 27 5 15 -6 31 -16 35 -22 5 -9 10 -9 20 1 16
16 28 15 28 -3 0 -8 -4 -15 -10 -15 -5 0 -10 -4 -10 -9 0 -6 8 -10 18 -10 9 1
35 -3 56 -7 37 -7 42 -5 68 26 21 26 31 31 40 22 9 -9 8 -16 -5 -30 -9 -10
-18 -34 -20 -53 -2 -32 -5 -34 -40 -34 -45 -1 -66 -18 -51 -43 8 -12 8 -22 1
-34 -15 -23 6 -68 32 -68 28 0 44 -32 27 -55 -19 -27 1 -75 31 -75 16 0 27 -9
35 -27 16 -37 15 -36 27 -28 7 4 6 14 -4 29 -9 13 -13 31 -9 40 8 21 50 21 58
0 8 -21 9 -18 -14 -44 -13 -15 -20 -37 -20 -66 0 -23 -3 -49 -6 -58 -8 -22 12
-20 47 4 l28 21 15 -30 16 -30 -33 6 c-28 4 -36 1 -51 -22 -15 -23 -23 -26
-56 -23 -22 2 -40 -1 -40 -7 0 -5 17 -11 38 -13 31 -2 42 -9 51 -29 17 -38
-10 -65 -61 -61 -21 2 -38 -1 -38 -7 0 -5 17 -11 38 -13 30 -2 42 -9 51 -28
24 -53 -41 -88 -80 -43 -10 12 -16 26 -13 30 6 11 -24 24 -33 15 -3 -3 0 -12
7 -21 10 -13 9 -15 -7 -15 -10 0 -25 6 -31 12 -10 10 -17 10 -32 0 -16 -10
-23 -8 -43 11 -29 26 -25 47 9 47 33 0 43 28 16 49 -11 9 -24 29 -28 44 -3 16
-13 31 -20 34 -8 3 -14 11 -14 19 0 8 -10 14 -23 14 -12 0 -32 7 -44 15 -21
15 -22 14 -17 -10 3 -18 0 -25 -11 -25 -12 0 -15 6 -10 20 4 11 2 20 -4 20
-13 0 -35 -39 -27 -48 3 -3 6 1 6 9 0 12 2 11 10 -1 6 -10 5 -17 -5 -22 -16
-10 -8 -48 11 -48 10 0 13 -12 11 -40 -4 -56 -19 -54 -38 5 -16 50 -41 70 -52
41 -4 -10 2 -20 14 -26 19 -10 44 -58 36 -67 -2 -2 -12 -1 -21 3 -25 10 -59
82 -52 113 3 14 10 43 15 63 7 28 6 35 -5 31 -8 -3 -11 2 -7 16 5 21 33 38 33
20 0 -6 9 -8 20 -4 10 3 30 1 42 -6 20 -11 48 -15 76 -10 4 1 -6 13 -23 27
-20 17 -24 22 -10 17 18 -6 19 -5 5 12 -14 18 -14 18 11 0 15 -11 22 -23 17
-26 -7 -4 -6 -9 1 -14 7 -4 18 -1 26 5 13 10 15 8 15 -12 0 -40 22 -75 55 -87
39 -14 88 -15 80 -1 -3 5 4 12 17 15 44 11 65 104 29 127 -10 6 -17 18 -14 25
3 9 -3 13 -21 13 -14 0 -26 4 -26 8 0 12 -54 8 -68 -5 -18 -17 -37 -16 -52 2
-10 12 -10 15 0 15 9 0 7 7 -5 20 -20 22 -44 28 -26 6 8 -10 9 -16 1 -21 -6
-4 -10 -3 -9 2 1 4 0 10 -1 13 -9 25 -6 38 8 33 10 -4 13 -2 8 5 -3 6 -2 13 3
16 5 4 8 -2 6 -11 -2 -18 12 -43 25 -43 4 0 7 15 6 32 -1 22 -7 34 -19 36 -9
2 -17 7 -17 12 0 4 -8 7 -17 6 -18 -1 -19 3 -8 39 4 16 3 15 -6 -2 -7 -13 -17
-23 -22 -23 -6 0 0 -12 14 -27 13 -14 19 -23 12 -19 -15 8 -37 -30 -27 -47 5
-8 2 -7 -9 2 -20 16 -22 63 -5 91 11 17 8 24 -21 53 l-32 34 37 7 c26 5 39 4
45 -6 7 -10 9 -10 9 0 0 19 20 14 20 -5 0 -15 2 -16 10 -3 12 19 -5 30 -45 30
-17 0 -36 5 -42 11 -8 8 -13 7 -18 -2 -5 -8 -4 -10 3 -5 7 4 12 2 12 -3 0 -13
-37 -15 -45 -2 -7 12 24 43 36 36 5 -4 9 4 9 15 0 18 4 21 24 16 26 -6 52 15
41 34 -9 15 -24 12 -51 -9 -22 -17 -27 -18 -52 -5 -35 18 -42 18 -42 -2 0 -8
5 -12 10 -9 14 9 12 -8 -2 -24 -9 -10 -9 -12 -1 -7 6 3 14 2 17 -3 12 -19 -6
-39 -47 -51 -57 -18 -60 -22 -75 -73 -12 -40 -18 -46 -51 -54 -26 -7 -42 -6
-56 3 -31 19 -65 1 -65 -34 0 -15 5 -33 12 -40 9 -9 7 -12 -10 -12 -29 0 -48
-36 -30 -57 10 -13 10 -17 1 -20 -16 -6 -17 -45 -1 -61 7 -7 22 -12 34 -12 43
0 62 -57 32 -95 -22 -28 -17 -45 13 -45 10 0 19 -7 19 -15 0 -7 6 -18 12 -22
7 -4 21 -21 30 -38 19 -34 53 -41 54 -10 1 45 16 85 31 85 9 0 13 6 9 15 -3 8
-1 15 5 15 13 0 51 -89 43 -101 -8 -14 17 -41 32 -35 24 9 23 -23 -1 -46 -35
-32 -31 -46 13 -50 31 -2 38 -7 40 -28 2 -14 9 -29 16 -35 6 -5 17 -29 24 -52
9 -32 18 -43 32 -43 11 0 29 -8 40 -17 18 -16 18 -19 5 -40 -19 -28 -3 -71 29
-75 13 -2 20 -9 18 -20 -1 -9 2 -20 9 -23 6 -5 -1 -14 -20 -26 -37 -22 -42
-60 -10 -83 16 -10 20 -21 16 -37 -4 -13 -1 -29 5 -36 6 -7 7 -13 3 -13 -4 0
-2 -7 6 -16 8 -9 9 -18 3 -22 -26 -18 0 -71 35 -72 10 0 8 -7 -7 -23 l-22 -23
28 -52 c22 -42 32 -52 53 -52 68 0 84 -9 95 -55 5 -24 6 -42 2 -39 -4 3 -8 1
-8 -4 0 -6 7 -13 16 -16 8 -3 13 -10 9 -16 -9 -15 12 -47 35 -53 22 -6 22 4
-3 63 -6 14 -11 30 -12 35 0 6 -4 16 -8 22 -12 19 15 15 39 -6 16 -13 21 -25
16 -46 -3 -19 -1 -26 6 -21 8 5 10 1 5 -9 -5 -13 -7 -14 -14 -3 -7 10 -9 10
-9 -2 0 -8 5 -22 10 -30 8 -13 12 -11 29 7 12 12 18 29 15 37 -4 11 0 13 15 9
19 -5 26 4 22 29 0 5 4 8 10 8 5 0 7 5 4 10 -3 6 1 13 9 16 9 3 16 15 16 26 0
14 -5 18 -15 14 -9 -3 -15 0 -15 9 0 18 12 19 28 3 10 -10 15 -10 22 2 7 10
10 11 10 3 0 -7 -1 -14 -2 -16 -2 -1 7 -15 19 -30 11 -15 19 -36 16 -46 -3
-10 0 -22 6 -25 6 -4 11 -18 11 -31 0 -18 -4 -22 -21 -18 -16 4 -19 11 -15 29
4 16 2 24 -6 24 -15 0 -42 -39 -34 -48 3 -3 6 0 6 6 0 7 5 12 11 12 6 0 8 -7
5 -16 -3 -8 1 -22 9 -30 13 -14 15 -13 15 2 0 14 3 15 12 6 10 -10 10 -15 -2
-22 -19 -13 -30 -12 -30 0 0 6 -6 10 -14 10 -13 0 -30 -50 -17 -50 15 -1 39
-27 46 -50 8 -25 7 -25 -13 -6 -39 34 -94 -1 -76 -48 14 -37 84 -27 84 13 1
13 2 13 11 -3 8 -13 8 -24 -2 -42 -29 -54 34 -100 75 -55 9 10 31 21 47 23 26
4 30 2 25 -15 -4 -18 13 -47 30 -47 3 0 4 12 1 28 -3 16 0 35 9 46 12 18 19
15 15 -6 0 -5 4 -8 9 -8 14 0 12 12 -5 37 -13 18 -13 22 0 33 22 18 19 27 -15
39 -16 5 -30 6 -30 2 0 -5 12 -12 26 -15 l25 -7 -23 -19 c-23 -18 -23 -18 -32
1 -5 11 -19 19 -33 19 -15 0 -27 9 -35 25 -6 14 -14 25 -18 25 -4 0 -10 14
-14 31 -3 17 -10 28 -16 24 -15 -9 -12 8 4 31 10 14 11 23 4 32 -8 9 -7 20 3
39 13 24 12 27 -9 41 -12 8 -22 23 -22 33 0 10 -4 20 -9 24 -16 9 -42 68 -34
76 16 14 83 30 102 24 28 -9 38 15 13 34 -16 13 -18 21 -10 41 l9 25 15 -27
c9 -17 20 -25 31 -22 20 5 67 -32 58 -46 -3 -4 -28 -11 -55 -15 -29 -4 -50
-12 -50 -19 0 -23 13 -26 32 -9 10 9 21 13 25 10 3 -4 12 -2 20 5 20 16 24 6
8 -22 -26 -45 -27 -50 -21 -65 7 -19 40 -19 56 0 17 20 27 19 47 -5 10 -11 23
-20 30 -20 8 0 18 -11 24 -24 9 -20 7 -27 -17 -51 -25 -25 -32 -27 -77 -22
-34 5 -54 13 -64 27 -24 35 -83 21 -83 -20 0 -9 9 -25 20 -35 17 -15 24 -16
45 -7 14 6 25 16 25 21 0 11 65 3 92 -11 10 -4 15 -14 12 -22 -9 -23 44 -76
76 -76 23 0 32 -7 46 -36 14 -29 15 -40 6 -55 -17 -26 -15 -43 6 -62 25 -23
48 -21 66 4 19 27 7 62 -25 69 -17 4 -27 19 -40 55 -15 45 -20 50 -47 50 -44
1 -63 21 -59 64 5 49 42 69 87 46 32 -16 40 -49 20 -85 -8 -14 -4 -25 17 -49
15 -17 35 -31 44 -31 9 0 24 -11 33 -25 20 -30 46 -32 70 -6 13 15 14 24 6 46
-7 20 -7 31 1 41 13 15 34 19 24 5 -8 -15 24 -41 50 -41 17 0 29 9 39 29 14
26 13 30 -4 49 -19 20 -19 20 11 32 26 11 32 10 53 -9 30 -29 39 -27 31 8 -5
24 -2 32 14 41 12 6 21 7 21 3 0 -4 5 -2 10 3 7 7 5 20 -5 40 -8 17 -16 41
-18 54 -5 34 -27 38 -27 5 0 -25 0 -26 -23 -9 -40 31 -61 64 -48 77 9 9 15 8
22 -5 12 -22 37 -23 59 -3 15 14 19 12 43 -12 15 -16 35 -39 45 -52 13 -16 25
-22 36 -18 27 11 32 38 9 56 -25 20 -39 81 -19 81 16 0 28 24 21 43 -7 18 18
45 45 49 22 3 25 -1 27 -29 1 -22 -3 -33 -13 -33 -22 0 -34 -33 -19 -53 18
-25 23 -21 31 18 8 45 47 59 70 27 18 -26 48 -18 41 10 -3 11 0 22 9 25 19 7
18 33 -1 33 -8 0 -15 -9 -15 -19 0 -15 -18 -31 -34 -31 -1 0 -17 13 -34 29
-28 24 -31 32 -23 54 5 14 8 27 5 30 -3 2 2 7 10 10 9 4 15 3 14 -1 -1 -4 2
-19 6 -34 6 -22 14 -28 36 -28 15 0 35 9 46 21 12 13 27 19 41 16 16 -3 27 3
38 19 20 31 2 74 -32 74 -15 0 -27 9 -35 25 -12 26 -27 30 -100 26 -36 -3 -37
-1 -35 27 1 19 7 28 17 27 8 -1 9 0 3 2 -14 5 -17 25 -6 36 3 4 15 0 25 -10
25 -22 82 -27 97 -9 7 8 11 27 9 43 -2 22 -9 29 -31 31 -40 5 -60 -15 -53 -52
l6 -31 -20 23 c-19 23 -19 24 2 53 29 39 74 40 111 1 l26 -27 -25 -33 c-22
-28 -32 -32 -65 -30 -21 1 -42 -1 -45 -5 -4 -4 2 -7 14 -7 21 0 38 -15 25 -23
-5 -2 -2 -2 5 0 7 1 26 -4 42 -12 16 -8 35 -15 42 -14 7 0 -4 7 -24 16 -40 16
-42 33 -5 33 13 0 17 3 10 8 -8 5 -4 15 12 35 24 26 24 27 35 7 9 -17 7 -22
-12 -30 -13 -5 -16 -9 -8 -9 8 0 21 3 29 8 12 8 12 13 -1 33 -11 17 -13 29 -6
41 11 21 22 21 43 1 15 -15 15 -18 -1 -35 -19 -21 -13 -35 11 -26 22 9 18 45
-8 70 -13 12 -27 29 -30 37 -3 9 -6 10 -6 3 -1 -7 -9 -13 -18 -13 -14 0 -15
-2 -4 -9 7 -5 10 -14 6 -21 -5 -8 -12 -7 -26 6 -15 13 -17 19 -7 26 13 7 -28
13 -62 8 -9 -1 -6 6 9 19 22 19 25 19 36 4 7 -9 17 -13 24 -9 13 8 11 37 -3
47 -13 10 3 29 23 29 19 0 51 -29 35 -31 -5 -1 -15 -2 -21 -3 -18 -2 -17 -20
1 -24 9 -2 16 1 16 7 0 7 10 9 24 5 13 -3 27 -1 30 4 11 19 -5 40 -32 40 -16
-1 -35 10 -50 27 -23 28 -24 28 -52 11 -16 -9 -42 -15 -57 -14 -33 2 -53 -8
-53 -27 0 -23 32 -27 55 -5 30 28 65 27 65 -3 0 -28 -46 -55 -64 -37 -5 5 -21
10 -36 10 l-25 0 28 -19 c32 -21 29 -24 -25 -39 -31 -9 -38 -8 -41 6 -3 12 -5
10 -6 -5 0 -13 -6 -23 -11 -23 -6 0 -15 -11 -22 -25 -11 -25 2 -55 23 -55 13
0 11 37 -1 45 -8 5 -7 11 1 21 6 7 15 11 20 8 5 -3 9 0 9 5 0 6 9 11 20 11 17
0 19 -3 8 -19 -7 -11 -17 -17 -23 -14 -5 4 -7 3 -3 -2 4 -4 -2 -25 -14 -46
-18 -32 -20 -43 -10 -64 9 -19 19 -25 42 -25 23 0 29 -3 23 -13 -4 -6 -8 -19
-9 -27 -3 -42 -5 -48 -21 -54 -9 -4 -21 -2 -27 4 -5 5 -20 10 -32 10 -24 0
-34 17 -34 56 0 14 -7 27 -15 30 -21 8 -19 21 4 27 18 4 18 9 9 46 -8 30 -14
39 -21 32 -8 -8 -18 -4 -34 11 l-23 21 0 -22 c0 -16 -4 -21 -15 -17 -10 4 -17
-3 -21 -22 -3 -15 -10 -40 -15 -56 -14 -46 -11 -67 11 -73 29 -8 21 -35 -14
-44 -23 -6 -32 -3 -51 17 -23 25 -59 32 -70 14 -11 -19 -22 -2 -23 38 -1 25 4
44 13 52 18 15 19 42 3 58 -9 9 -7 12 11 12 28 0 91 61 91 88 0 15 9 21 38 27
54 10 82 40 82 89 0 32 -6 44 -32 66 l-32 27 49 22 c27 12 57 29 67 38 22 19
24 43 4 43 -8 0 -49 16 -92 35 -42 19 -78 35 -80 35 -2 0 -8 -17 -15 -38 -9
-31 -8 -45 5 -75 14 -35 14 -40 -4 -73 -13 -22 -20 -53 -20 -89 l0 -54 -30 11
c-42 14 -95 2 -119 -28 l-20 -25 -40 20 c-43 22 -81 27 -81 11 0 -5 5 -10 10
-10 6 0 10 -14 10 -31 l0 -31 -19 23 c-16 20 -23 22 -38 13 -10 -6 -19 -23
-21 -38 -2 -15 -11 -30 -20 -33 -34 -12 -43 -25 -30 -40 9 -12 15 -10 33 13
13 16 27 24 33 20 14 -8 16 -65 3 -85 -12 -18 -48 -5 -67 25 -9 13 -23 24 -31
24 -18 0 -44 -25 -35 -34 3 -4 -1 -4 -11 0 -12 4 -17 1 -18 -12 0 -12 -3 -14
-6 -6 -3 7 1 20 8 29 15 17 21 83 7 83 -4 0 -8 -5 -8 -11 0 -5 -5 -7 -10 -4
-6 4 -7 12 -3 18 4 8 1 7 -9 -1 -13 -10 -18 -10 -24 -1 -4 8 -3 9 4 5 7 -4 12
-2 12 4 0 6 -15 18 -32 26 -19 8 -23 13 -11 11 13 -3 20 0 17 7 -2 6 -23 10
-49 9 -25 -1 -43 2 -40 7 11 17 -17 21 -35 5 -12 -10 -31 -15 -52 -13 -29 3
-33 0 -32 -19 1 -13 -3 -23 -8 -23 -12 0 -31 -50 -30 -80 1 -21 0 -22 -7 -6
-5 12 -10 16 -14 9 -4 -6 -4 -19 0 -29 5 -13 3 -15 -8 -9 -11 7 -12 6 -3 -6 6
-8 12 -34 13 -59 0 -24 5 -48 10 -53 6 -6 8 -2 4 12 -5 22 -4 21 23 -4 l29
-27 5 28 c6 33 36 44 43 17 3 -12 5 -8 6 10 1 30 -2 32 -29 17 -18 -10 -19 -6
-17 64 1 72 2 74 19 56 10 -11 18 -24 18 -30 0 -14 17 -13 24 3 5 9 7 9 12 0
3 -7 12 -9 20 -6 12 4 13 8 3 14 -10 6 -10 11 2 26 13 16 12 17 -3 5 -14 -11
-17 -10 -21 5 -4 14 -5 13 -6 -4 -1 -29 -14 -29 -46 -1 -23 20 -24 24 -10 34
14 10 14 12 0 18 -21 8 -19 26 3 26 14 0 15 -2 2 -10 -13 -8 -12 -10 5 -11 11
-1 23 -1 28 0 12 2 8 -24 -5 -38 -10 -11 -8 -10 10 0 12 8 22 19 22 26 0 21
26 15 44 -10 l17 -22 -11 23 c-7 15 -7 22 0 22 17 0 17 -77 -1 -94 -5 -6 -9
-18 -9 -27 0 -9 -6 -22 -14 -28 -12 -10 -14 -9 -12 6 2 10 1 12 -1 6 -3 -7 -6
-13 -8 -13 -12 0 -55 25 -55 32 0 4 -4 8 -10 8 -22 0 -8 -22 19 -31 20 -7 28
-15 24 -25 -3 -8 0 -14 7 -14 6 0 8 5 5 10 -3 6 -2 10 4 10 19 0 22 -21 6 -46
-9 -14 -14 -31 -12 -37 2 -7 11 4 19 23 l15 35 5 -27 c3 -19 1 -28 -7 -28 -7
0 -15 -7 -19 -15 -4 -12 -2 -13 13 -5 14 7 20 6 25 -5 4 -11 -2 -15 -24 -15
-20 0 -31 6 -35 20 -5 16 -9 17 -20 7 -7 -6 -10 -16 -8 -21 3 -5 0 -6 -8 -4
-8 3 -13 12 -11 19 3 12 1 12 -10 1 -11 -11 -10 -16 6 -28 11 -8 15 -14 9 -14
-7 0 -15 5 -18 10 -4 6 -11 8 -16 4 -7 -4 -7 -10 0 -18 10 -12 10 -41 -1 -52
-8 -7 28 -44 43 -44 6 0 9 9 6 20 -3 11 -1 23 4 26 9 5 13 -16 10 -43 -1 -7 6
-13 15 -13 21 0 11 -12 -14 -17 -18 -4 -59 -6 -78 -4 -7 1 -18 21 -25 46 -9
32 -19 45 -31 45 -10 0 -18 5 -18 10 0 6 4 10 10 10 16 0 32 40 22 53 -6 7
-12 21 -15 32 -3 13 -5 9 -6 -12 -1 -20 4 -33 11 -33 9 0 9 -3 0 -12 -9 -9
-16 -8 -29 4 -10 8 -24 13 -31 11 -9 -4 -10 1 -2 22 14 36 13 45 -6 45 -12 0
-14 -7 -9 -29 4 -17 2 -32 -5 -36 -17 -11 -24 3 -10 20 10 12 10 15 -4 15 -10
0 -24 7 -32 15 -14 13 -14 15 0 15 9 0 16 5 16 10 0 6 -7 10 -15 10 -8 0 -15
5 -15 10 0 18 -20 11 -21 -7 0 -11 -3 -13 -6 -5 -8 20 -26 14 -20 -8 6 -25 2
-25 -25 0 -22 20 -53 26 -61 13 -2 -5 -2 -2 0 6 2 7 -2 11 -10 8 -7 -3 -13 2
-13 12 0 9 -3 27 -7 41 -3 14 -2 32 3 40 7 12 12 12 29 -4 11 -10 21 -30 23
-45 2 -21 9 -27 36 -29 24 -2 38 2 47 14 12 18 14 17 48 -1 33 -18 36 -18 61
-2 30 20 33 43 10 75 -18 26 -41 28 -72 6 -25 -17 -46 -10 -37 13 4 13 3 14
-10 3 -11 -9 -15 -9 -15 -1 0 7 -4 9 -10 6 -6 -3 -7 1 -4 10 4 9 13 14 20 11
8 -3 14 0 14 5 0 6 -8 9 -19 6 -10 -2 -25 0 -34 4 -10 6 -21 4 -31 -6 -10 -10
-17 -12 -21 -4 -4 5 -5 13 -1 16 8 9 -23 35 -34 28 -5 -3 -15 5 -22 19 -8 18
-19 26 -37 26 -25 1 -25 1 -7 15 26 20 62 19 70 -1 8 -20 45 -15 60 9 16 24
-5 52 -38 52 -15 0 -33 7 -39 16 -7 8 -21 20 -31 26 -18 10 -17 11 10 24 25
12 29 20 29 55 1 43 21 74 49 74 21 0 30 -18 16 -35 -7 -8 -9 -15 -5 -15 4 0
2 -6 -4 -14 -9 -11 -8 -22 6 -50 14 -30 22 -36 48 -36 43 0 63 -39 39 -75 -13
-20 -14 -29 -3 -60 10 -28 19 -35 41 -36 15 -1 33 -2 39 -3 7 -1 21 11 32 26
17 22 18 31 9 58 -9 25 -8 36 4 56 14 20 14 29 4 53 -9 22 -9 34 0 50 14 28
65 29 80 2 14 -27 13 -41 -5 -41 -8 0 -15 -7 -15 -15 0 -8 -9 -15 -19 -15 -10
0 -21 -7 -25 -15 -3 -8 -1 -15 4 -15 6 0 10 5 10 10 0 6 7 10 16 10 13 0 14
-3 5 -13 -6 -8 -7 -18 -3 -22 4 -5 -1 -5 -10 -2 -10 4 -18 2 -18 -4 0 -6 -5
-7 -12 -3 -7 4 -8 3 -4 -5 4 -6 12 -9 17 -6 5 3 6 -1 3 -9 -3 -9 -1 -16 5 -16
6 0 11 -8 11 -18 0 -12 8 -18 25 -20 25 -2 33 14 17 34 -4 5 -5 8 -3 7 2 -2
14 9 26 23 l22 26 13 -31 c22 -54 37 -59 69 -21 25 30 31 33 69 28 l42 -6 -4
49 c-2 29 1 49 7 49 6 0 8 -3 4 -6 -3 -4 0 -13 8 -21 8 -8 15 -27 15 -42 0
-51 47 -64 71 -20 12 23 32 24 48 5 22 -27 70 -30 101 -7 l28 20 17 -25 c12
-18 23 -24 36 -21 12 3 22 0 26 -9 3 -8 14 -14 25 -14 27 0 19 34 -9 38 -22 3
-38 38 -21 48 5 3 17 -1 27 -10 24 -22 34 -20 26 4 -5 16 -2 20 15 20 19 0 20
4 14 38 -7 41 -24 67 -24 37 0 -14 -3 -16 -11 -8 -9 9 -8 18 5 38 13 20 14 30
6 46 -9 16 -8 26 3 43 13 19 13 25 1 49 -18 33 -53 36 -79 7 -10 -11 -30 -20
-44 -20 -36 0 -55 -31 -39 -65 7 -16 19 -25 35 -25 15 0 27 -9 35 -25 6 -14
18 -25 25 -25 8 0 11 -5 8 -10 -4 -6 -11 -8 -16 -5 -10 7 -15 -4 -24 -57 -7
-47 -25 -50 -25 -4 0 51 -33 86 -80 86 -43 0 -51 12 -36 51 14 38 -14 79 -53
79 -31 0 -41 13 -33 43 6 23 27 22 52 -3 11 -11 31 -20 43 -20 27 0 57 28 57
54 0 14 7 16 50 10 47 -6 50 -5 60 21 9 23 13 25 26 14 13 -10 21 -9 47 6 34
20 127 31 127 15 0 -6 4 -10 10 -10 6 0 6 9 0 25 -6 16 -6 26 1 31 17 10 21
-1 24 -68 4 -59 5 -63 27 -59 13 1 34 11 48 21 25 18 26 18 59 -12 29 -26 40
-30 75 -25 23 3 48 8 56 11 12 5 14 -3 12 -49 -4 -50 -1 -58 25 -83 l30 -27
-19 -30 c-21 -34 -22 -59 -7 -102 l10 -30 79 38 c44 22 86 39 95 39 42 0 -22
59 -87 80 -37 11 -38 12 -20 35 l17 23 25 -27 c30 -32 64 -33 95 -3 17 16 21
30 19 54 -2 18 -8 34 -13 36 -14 5 20 58 43 68 14 6 21 18 21 37 0 17 8 34 20
43 16 12 17 17 7 32 -7 9 -16 27 -22 40 -11 25 -25 31 -16 6 5 -13 1 -15 -17
-12 -20 4 -23 0 -25 -28 -2 -24 3 -37 20 -48 15 -11 18 -16 7 -16 -8 0 -22 -9
-32 -20 -12 -14 -29 -20 -57 -20 -29 0 -40 -4 -40 -15 0 -18 4 -18 55 -1 49
17 60 12 40 -18 -11 -16 -29 -25 -58 -29 -38 -5 -44 -3 -68 25 -20 24 -34 32
-63 32 -33 1 -38 5 -43 28 -15 77 -110 105 -162 48 l-28 -31 -41 42 c-37 36
-46 41 -80 37 -30 -2 -39 0 -38 12 1 8 -7 14 -16 14 -10 -1 -18 3 -18 8 0 6
-11 7 -24 4 -16 -4 -30 0 -40 9 -13 13 -17 11 -37 -17 l-23 -33 28 25 28 25
-4 -25 c-2 -14 5 -33 14 -44 22 -24 22 -32 2 -40 -10 -4 -21 0 -28 9 -6 9 -20
14 -31 13 -32 -5 -32 16 1 23 21 5 23 7 9 9 -11 1 -24 2 -28 1 -19 -3 34 67
54 71 7 2 19 10 26 18 10 13 14 12 35 -5 l23 -20 -22 26 c-14 15 -23 38 -22
55 l1 29 9 -26 c11 -28 33 -39 86 -39 29 0 36 -6 57 -49 22 -42 30 -49 63 -54
63 -11 69 -9 98 35 l28 41 -21 50 -21 49 30 44 c16 24 26 44 21 44 -9 0 -42
63 -42 80 0 5 6 7 14 4 18 -7 25 18 22 71 -2 22 1 45 6 51 5 7 4 23 -2 39 -6
15 -8 30 -6 33 3 3 9 -4 12 -14 11 -29 25 -44 36 -38 5 3 2 11 -7 18 -22 16
-27 66 -7 73 25 10 62 -42 62 -86 0 -53 20 -69 65 -52 23 8 45 9 67 3 18 -5
39 -7 46 -5 9 4 10 -1 2 -21 -6 -16 -6 -27 0 -31 6 -4 10 -15 10 -26 0 -25 29
-24 38 2 5 11 11 20 15 20 25 -3 33 1 34 19 1 11 -3 20 -9 20 -5 0 -7 8 -4 17
9 22 -11 33 -48 26 l-29 -6 27 36 c15 19 34 38 42 41 18 7 18 40 0 55 -8 7
-19 26 -25 42 -9 27 -8 31 12 38 72 28 63 125 -14 144 -19 5 -29 17 -39 49
-16 51 -25 64 -34 49 -10 -16 -33 -13 -33 4 0 8 4 15 8 15 4 0 17 20 29 45 12
25 26 43 31 40 4 -3 20 2 34 11 25 16 26 16 32 -5 4 -16 12 -21 27 -19 11 2
20 8 19 14 -1 6 5 11 13 11 7 0 14 -5 14 -11 0 -17 43 -41 48 -27 5 14 49 15
54 1 2 -6 9 -1 17 11 11 19 11 21 -3 16 -10 -4 -16 -1 -16 8 0 8 -4 15 -10 15
-5 0 -10 9 -10 19 0 18 -2 19 -26 6 -35 -18 -57 -10 -44 15 6 10 10 21 10 23
0 9 -109 -2 -130 -13 -15 -8 -18 -8 -14 3 6 17 -19 29 -41 21 -18 -7 -20 -24
-2 -25 6 0 3 -4 -8 -8 -13 -5 -24 -3 -31 7 -18 24 -23 0 -11 -46 6 -23 17 -42
25 -42 7 0 10 -4 7 -10 -10 -16 -43 -12 -53 6 -6 11 -17 15 -31 11 -17 -4 -21
-1 -21 18 0 13 5 27 10 30 16 10 11 34 -9 45 -23 12 -54 -12 -45 -35 8 -20
-10 -19 -26 0 -11 13 -9 20 10 40 13 14 18 25 11 25 -7 0 -9 4 -6 10 10 17
-13 47 -35 45 -11 -1 -28 -11 -36 -24 -13 -18 -19 -20 -30 -10 -8 7 -32 13
-52 14 -27 0 -38 6 -40 19 -3 12 0 16 8 11 24 -15 78 -7 99 14 12 12 19 21 16
21 -3 0 -1 9 5 21 9 15 8 24 -1 35 -6 8 -8 14 -3 14 4 0 -2 9 -14 20 -12 11
-26 20 -31 20 -7 0 -7 8 -2 23 6 14 15 21 27 19 52 -10 69 -6 78 15 8 17 16
20 43 16 29 -5 33 -3 33 16 0 18 6 21 40 21 36 0 41 3 54 34 18 43 81 130 71
98 -6 -20 -4 -22 17 -17 13 4 33 8 44 10 10 2 21 4 24 5 3 0 -4 8 -15 16 -12
10 -14 14 -5 12 24 -8 73 21 66 38 -4 11 -1 14 11 12 11 -2 18 -13 18 -27 0
-13 8 -29 18 -35 27 -17 44 13 40 68 -4 49 2 56 23 29 7 -10 16 -15 20 -11 4
4 1 14 -5 22 -9 10 -9 16 -1 21 6 4 17 -1 24 -11 8 -11 15 -13 20 -6 3 6 2 14
-4 17 -6 4 -8 15 -5 26 4 11 2 19 -4 19 -6 0 -11 -4 -11 -10 0 -5 -6 -10 -13
-10 -18 0 -21 65 -4 78 7 5 22 13 34 16 19 6 25 2 33 -19 12 -31 35 -42 55
-25 21 17 19 46 -4 62 -21 15 -18 69 4 88 11 9 17 4 30 -21 9 -17 29 -43 43
-57 18 -16 23 -26 15 -29 -7 -3 -13 -14 -13 -25 0 -17 5 -19 38 -13 26 4 43 1
57 -10 18 -14 19 -16 3 -25 -9 -6 -24 -17 -32 -25 -9 -10 -17 -11 -21 -5 -10
17 -37 11 -33 -7 5 -25 36 -24 69 4 23 19 33 23 42 14 18 -18 46 -13 63 14 18
28 55 33 74 10 19 -23 30 -18 30 15 0 23 5 31 25 36 28 7 30 18 10 54 -8 14
-14 35 -15 48 0 13 -6 22 -15 22 -10 0 -15 -10 -15 -26 l0 -26 -32 31 c-39 38
-48 39 -48 4 l0 -26 -25 23 c-14 13 -23 25 -20 28 2 3 0 13 -5 23 -8 14 -6 21
10 29 12 6 19 17 17 23 -2 7 3 17 11 23 24 18 4 34 -38 30 -29 -2 -37 0 -33
10 3 8 0 14 -6 14 -6 0 -11 -5 -11 -11 0 -5 -4 -7 -10 -4 -5 3 -10 1 -10 -4 0
-6 6 -11 13 -11 8 0 7 -3 -3 -9 -16 -11 -47 28 -77 98 -18 42 -41 52 -62 27
-8 -10 -9 -16 -1 -21 5 -3 10 -11 10 -17 0 -6 -10 -3 -21 8 -16 14 -23 15 -26
7 -5 -15 -33 -17 -33 -3 0 15 -26 12 -39 -4 -8 -10 -8 -20 4 -42 19 -36 19
-44 1 -44 -19 0 -31 -57 -16 -75 15 -18 -6 -31 -24 -15 -11 8 -16 8 -20 -2 -3
-7 -4 -4 -1 8 6 22 -24 64 -45 64 -7 0 -19 -8 -27 -17 -8 -10 -12 -13 -9 -6 4
6 2 14 -4 18 -5 3 -10 1 -10 -4 0 -6 -7 -11 -15 -11 -9 0 -12 -6 -9 -15 4 -9
0 -15 -10 -15 -9 0 -16 -4 -16 -10 0 -5 6 -10 13 -10 9 0 8 -3 -2 -9 -10 -6
-10 -10 -1 -16 9 -6 9 -9 0 -15 -15 -9 -4 -30 16 -30 8 0 14 -10 14 -25 0 -14
5 -25 10 -25 6 0 10 -7 10 -15 0 -8 -7 -15 -15 -15 -8 0 -15 -5 -15 -11 0 -6
7 -9 15 -5 8 3 15 1 15 -4 0 -6 -8 -10 -19 -10 -10 0 -21 -9 -24 -20 -3 -11
-1 -20 4 -20 6 0 5 -8 -1 -19 -7 -14 -7 -22 0 -26 13 -8 2 -47 -16 -58 -8 -4
-14 -15 -14 -22 0 -19 -8 -19 -26 -1 -18 18 -18 27 0 20 8 -3 17 -1 21 5 3 6
-1 11 -9 11 -9 0 -16 7 -16 15 0 21 -20 19 -21 -2 0 -11 -3 -13 -6 -5 -7 17
-21 15 -25 -4 -2 -13 -8 -11 -31 11 -26 27 -28 27 -46 11 -18 -17 -20 -16 -26
4 -9 28 4 120 17 120 6 0 8 -12 5 -30 -8 -37 10 -40 19 -4 6 23 8 24 22 10 9
-9 21 -30 27 -48 10 -31 13 -33 50 -31 48 3 68 25 55 59 -7 19 -6 24 5 24 17
0 20 16 5 25 -5 3 -10 14 -10 24 0 9 -6 26 -14 37 -11 15 -17 16 -27 7 -7 -7
-24 -9 -40 -6 -22 4 -30 1 -36 -13 -10 -27 -23 -34 -67 -34 -34 0 -46 -7 -81
-44 l-40 -44 -33 29 c-38 34 -65 36 -109 9 -22 -13 -36 -32 -44 -60 -11 -35
-16 -40 -41 -40 -41 0 -78 -40 -78 -84 0 -19 5 -38 10 -41 15 -9 2 -25 -21
-25 -20 0 -26 15 -9 25 20 12 9 26 -18 24 -15 -2 -33 0 -40 5 -7 4 -14 1 -17
-8 -3 -9 -7 -23 -10 -31 -2 -8 0 -15 5 -15 6 0 10 5 10 10 0 18 22 10 27 -10
5 -20 38 -27 101 -21 35 3 26 -13 -21 -36 l-42 -20 -18 23 c-13 17 -28 24 -52
24 -28 0 -35 4 -35 20 0 11 -6 20 -14 20 -26 0 -29 -22 -6 -40 15 -11 19 -19
11 -24 -36 -22 11 -102 54 -93 28 5 34 -5 28 -55 -4 -30 -10 -37 -31 -41 -24
-5 -41 6 -42 24 0 3 15 13 33 22 l32 16 -36 -3 c-31 -3 -39 1 -54 26 -21 36
-28 32 -16 -10 9 -31 8 -32 -20 -32 -16 0 -29 -4 -29 -9 0 -6 15 -7 34 -4 39
6 59 -13 33 -32 -10 -7 -17 -16 -17 -20 0 -4 -7 -13 -17 -20 -9 -7 -13 -17 -9
-23 10 -17 23 -15 30 6 3 9 12 27 20 40 12 21 14 21 20 5 3 -10 9 -24 12 -30
3 -8 -1 -13 -11 -13 -12 0 -16 -8 -15 -27 3 -38 -10 -73 -24 -73 -20 0 -27 12
-16 25 8 9 4 13 -15 13 -14 0 -25 -4 -25 -9 0 -5 5 -9 10 -9 6 0 10 -6 10 -14
0 -18 34 -26 70 -16 24 7 30 6 30 -7 0 -9 3 -14 6 -10 4 3 13 0 21 -8 17 -17
43 -20 43 -5 0 6 11 10 24 10 26 0 51 23 42 38 -8 14 30 22 43 9 7 -7 4 -18
-9 -35 -11 -14 -20 -37 -20 -52 0 -32 -14 -40 -54 -33 -22 5 -28 1 -33 -16 -3
-11 -6 -21 -7 -21 0 0 -21 7 -46 15 -45 15 -45 15 -7 11 28 -4 37 -1 37 10 0
9 -11 14 -30 14 -30 0 -40 13 -20 25 19 12 -1 24 -39 23 -33 0 -40 -4 -44 -24
-4 -25 8 -34 16 -11 6 17 24 -1 32 -34 6 -26 6 -27 -56 -31 -41 -3 -66 -10
-72 -20 -9 -13 -13 -13 -40 0 -28 14 -29 16 -12 29 22 15 12 17 -15 3 -16 -8
-23 -4 -44 23 -15 19 -26 43 -26 55 0 11 -5 22 -11 24 -6 2 -13 22 -15 43 -3
46 -36 80 -69 71 -11 -2 -40 -10 -64 -16 -51 -13 -91 -6 -144 23 -33 18 -37
25 -32 47 8 33 25 49 55 52 32 4 37 -21 10 -52 -15 -18 -17 -26 -9 -37 14 -17
43 3 35 24 -9 23 5 42 35 48 16 4 29 13 29 21 0 7 11 21 24 29 33 22 73 3 85
-39 9 -35 -2 -56 -30 -56 -11 0 -19 -5 -19 -10 0 -6 10 -8 24 -4 17 4 28 0 39
-16 9 -14 20 -19 28 -15 9 6 9 11 -3 19 -23 17 -30 46 -13 52 22 9 18 38 -7
49 -28 12 -37 85 -12 85 9 0 14 6 11 13 -2 6 -10 11 -16 9 -7 -1 -10 2 -6 8 3
6 11 8 16 4 5 -3 16 -1 24 6 7 6 20 10 27 8 7 -2 15 2 16 7 1 6 -4 10 -10 10
-7 0 -14 8 -16 18 -3 15 0 18 16 13 11 -4 23 -2 27 4 3 6 -3 10 -14 10 -12 0
-21 6 -21 14 0 8 -9 18 -21 21 -26 9 -19 31 10 28 28 -4 27 13 -1 22 -20 6
-20 8 -5 12 9 2 17 9 17 14 0 5 13 9 30 9 19 0 33 7 40 20 6 11 16 20 22 20 7
0 6 -5 -2 -15 -17 -20 -5 -62 20 -70 49 -16 84 27 57 68 -16 25 -17 91 -1 107
8 8 15 2 24 -19 7 -17 16 -31 21 -31 4 0 1 16 -6 34 -8 19 -11 37 -6 40 4 3
14 -13 21 -35 10 -29 20 -41 39 -45 14 -3 31 -7 36 -8 6 -2 25 10 43 25 18 16
42 29 53 29 15 0 19 5 14 19 -3 12 0 21 10 25 8 3 15 0 15 -7 0 -7 11 -17 25
-23 20 -10 27 -9 40 6 9 10 23 16 31 13 8 -3 14 0 14 6 0 15 -20 14 -52 -3
-26 -14 -28 -13 -28 5 0 10 5 19 10 19 6 0 10 9 10 20 0 18 4 20 35 14 28 -5
35 -3 35 10 0 20 -32 35 -38 18 -5 -15 -32 -16 -32 -1 0 6 -5 9 -11 7 -6 -2
-10 -8 -10 -13 0 -10 -36 -34 -51 -35 -14 0 -8 28 7 34 8 3 15 13 15 22 0 12
-6 15 -22 11 -12 -4 -27 -2 -34 4 -8 7 -17 -1 -31 -28 -18 -34 -24 -38 -52
-35 -23 3 -37 -2 -46 -14 -19 -27 -72 -27 -79 -1 -7 28 0 33 21 16 9 -8 14 -9
10 -2 -5 7 0 9 13 6 17 -5 18 -8 8 -21 -11 -13 -10 -14 2 -10 21 7 22 89 2
104 -20 14 -50 7 -55 -15 -3 -11 -5 -10 -6 6 0 12 -6 23 -13 25 -6 2 -8 10 -4
17 6 9 11 9 22 0 18 -15 32 -3 16 13 -7 7 -12 20 -12 30 0 10 -4 18 -10 18 -5
0 -10 -9 -10 -20 0 -11 -7 -20 -16 -20 -11 0 -14 6 -9 20 5 14 2 20 -10 20 -9
0 -15 -7 -13 -16 2 -10 -3 -19 -9 -21 -8 -3 -13 4 -13 16 0 12 -4 21 -10 21
-5 0 -10 4 -10 10 0 5 7 7 16 3 12 -5 15 1 12 28 -2 21 -8 33 -15 32 -7 -2
-13 2 -13 7 0 6 4 10 9 10 17 0 20 30 5 57 l-16 28 4 -32 c3 -18 1 -33 -4 -33
-4 0 -8 -7 -8 -16 0 -8 -4 -12 -10 -9 -5 3 -10 13 -10 21 0 8 5 12 10 9 6 -3
10 -1 10 4 0 6 -7 11 -15 11 -18 0 -19 12 -4 27 16 16 -8 28 -26 13 -8 -7 -15
-8 -15 -3 0 5 -11 10 -25 11 -23 2 -25 -1 -20 -26 3 -15 2 -20 -1 -12 -4 8
-10 22 -15 31 -6 12 -2 25 12 43 23 29 43 26 34 -5 -4 -11 -2 -19 4 -19 6 0
11 10 11 21 0 16 5 20 20 16 11 -3 20 -2 20 3 0 4 -9 10 -19 13 -11 2 -21 15
-23 28 l-4 24 -8 -23z m-99 -54 c-3 -8 -6 -5 -6 6 -1 11 2 17 5 13 3 -3 4 -12
1 -19z m90 -80 c-3 -8 -6 -5 -6 6 -1 11 2 17 5 13 3 -3 4 -12 1 -19z m57 -45
c10 -26 0 -25 -18 1 -13 20 -13 24 -2 20 8 -3 17 -13 20 -21z m-587 -4 c8 -2
9 -9 4 -17 -7 -11 -11 -10 -25 3 -19 20 -22 43 -3 28 6 -6 17 -12 24 -14z
m1973 -19 c9 -16 8 -18 -5 -14 -8 4 -15 1 -15 -5 0 -6 -4 -11 -9 -11 -5 0 -8
11 -7 25 1 30 21 33 36 5z m-135 -18 c-3 -3 -11 0 -18 7 -9 10 -8 11 6 5 10
-3 15 -9 12 -12z m-1238 2 c-3 -3 -12 -4 -19 -1 -8 3 -5 6 6 6 11 1 17 -2 13
-5z m38 -4 c3 -5 2 -10 -4 -10 -5 0 -13 5 -16 10 -3 6 -2 10 4 10 5 0 13 -4
16 -10z m1225 -18 c0 -13 -12 -22 -22 -16 -10 6 -1 24 13 24 5 0 9 -4 9 -8z
m39 -18 c3 -16 1 -17 -13 -5 -19 16 -21 34 -3 29 6 -3 14 -13 16 -24z m107
-30 c-3 -7 0 -15 7 -17 7 -2 0 -4 -14 -3 -24 1 -27 5 -27 34 0 32 1 33 19 16
11 -10 18 -23 15 -30z m-132 10 c17 -6 22 -24 8 -24 -5 0 -17 7 -28 15 -19 15
-8 20 20 9z m76 -10 c0 -9 -5 -14 -12 -12 -18 6 -21 28 -4 28 9 0 16 -7 16
-16z m-1773 0 c-3 -3 -12 -4 -19 -1 -8 3 -5 6 6 6 11 1 17 -2 13 -5z m33 -13
c0 -14 -7 -19 -25 -17 -30 1 -34 16 -5 16 11 0 20 5 20 10 0 6 2 10 5 10 3 0
5 -9 5 -19z m410 10 c0 -6 -4 -13 -10 -16 -5 -3 -10 1 -10 9 0 9 5 16 10 16 6
0 10 -4 10 -9z m1236 -42 c1 -13 -2 -39 -8 -57 -8 -26 -15 -32 -31 -30 -18 2
-22 10 -22 37 0 35 31 83 49 78 5 -2 11 -14 12 -28z m-1711 11 c3 -5 1 -10 -4
-10 -6 0 -11 5 -11 10 0 6 2 10 4 10 3 0 8 -4 11 -10z m1909 -6 c9 -3 13 -11
10 -16 -4 -6 4 -19 16 -28 26 -20 34 -56 13 -64 -7 -3 -13 1 -13 9 0 8 -4 15
-10 15 -5 0 -10 9 -10 20 0 11 -5 20 -11 20 -6 0 -8 -7 -5 -16 9 -23 -3 -37
-20 -23 -17 14 -18 43 -4 70 12 21 12 21 34 13z m-337 -71 c-12 -13 -19 -14
-30 -4 -8 6 -21 9 -29 6 -8 -3 -21 2 -29 12 -13 16 -12 17 4 4 13 -10 17 -10
17 -1 0 7 6 10 14 7 8 -3 22 3 32 12 18 18 19 18 28 -1 7 -13 5 -23 -7 -35z
m259 42 c6 -2 14 -13 17 -25 4 -16 0 -24 -16 -30 -12 -5 -17 -9 -11 -9 7 -1
14 -11 17 -22 5 -18 -2 -14 -34 17 -23 22 -39 47 -39 61 0 23 10 25 66 8z
m-1358 -17 c-6 -18 -28 -21 -28 -4 0 9 7 16 16 16 9 0 14 -5 12 -12z m1564
-60 c-6 -6 -9 0 -9 18 0 23 1 24 9 10 7 -12 7 -21 0 -28z m-1462 22 c0 -5 -2
-10 -4 -10 -3 0 -8 5 -11 10 -3 6 -1 10 4 10 6 0 11 -4 11 -10z m1037 -9 c-18
-39 -26 -59 -31 -73 -9 -29 -29 -22 -22 7 6 24 -9 36 -16 13 -2 -6 -9 -9 -15
-5 -16 10 35 62 63 63 13 1 23 -1 21 -5z m14 -14 c-10 -9 -11 -8 -5 6 3 10 9
15 12 12 3 -3 0 -11 -7 -18z m-825 -34 c-4 -59 -23 -69 -20 -11 3 58 3 58 14
58 5 0 8 -21 6 -47z m1064 37 c0 -5 -2 -10 -4 -10 -3 0 -8 5 -11 10 -3 6 -1
10 4 10 6 0 11 -4 11 -10z m237 -9 c7 7 12 4 16 -10 3 -12 1 -23 -4 -26 -13
-9 -59 25 -59 43 0 13 2 13 18 -1 13 -12 21 -14 29 -6z m-2012 -1 c3 -5 1 -10
-4 -10 -6 0 -11 5 -11 10 0 6 2 10 4 10 3 0 8 -4 11 -10z m1293 -7 c16 -16 16
-16 -1 -10 -10 4 -23 7 -28 7 -6 0 -7 5 -4 10 9 14 14 13 33 -7z m50 -12 c4
-27 -12 -21 -29 10 -9 18 -8 20 8 17 10 -2 19 -14 21 -27z m560 -1 c-2 -19 3
-34 12 -40 18 -11 6 -25 -15 -17 -17 7 -22 87 -4 87 6 0 9 -13 7 -30z m-1835
6 c3 -8 -1 -17 -9 -20 -9 -3 -12 -10 -9 -16 3 -5 2 -10 -4 -10 -6 0 -9 13 -8
30 2 31 21 41 30 16z m402 4 c8 -13 -5 -13 -25 0 -13 8 -13 10 2 10 9 0 20 -4
23 -10z m325 1 c0 -5 -6 -13 -12 -18 -15 -12 -48 -13 -48 -2 0 10 31 28 48 29
6 0 12 -4 12 -9z m804 0 c3 -4 3 -11 0 -14 -8 -8 -34 3 -34 14 0 11 27 12 34
0z m246 -13 c0 -9 4 -8 10 2 8 12 10 9 10 -12 0 -39 -25 -49 -71 -29 -38 16
-48 39 -15 33 9 -2 16 2 16 8 0 5 11 10 25 10 14 0 25 -6 25 -12z m100 -19 c0
-11 -4 -17 -10 -14 -5 3 -10 15 -10 26 0 11 5 17 10 14 6 -3 10 -15 10 -26z
m-696 -14 l7 -30 -23 23 c-19 19 -21 24 -8 32 17 11 15 12 24 -25z m13 13 c-3
-8 -6 -5 -6 6 -1 11 2 17 5 13 3 -3 4 -12 1 -19z m-779 -10 c-2 -19 -9 -23
-37 -23 -26 0 -36 5 -42 23 -8 21 -6 22 37 22 41 0 45 -2 42 -22z m822 18 c0
-2 -7 -6 -15 -10 -8 -3 -15 -1 -15 4 0 6 7 10 15 10 8 0 15 -2 15 -4z m670
-11 c0 -8 -4 -15 -10 -15 -5 0 -7 7 -4 15 4 8 8 15 10 15 2 0 4 -7 4 -15z
m-2010 -20 c0 -8 5 -15 12 -15 6 0 9 -3 6 -6 -10 -9 -49 16 -43 27 9 14 25 11
25 -6z m45 4 c11 -17 -1 -21 -15 -4 -8 9 -8 15 -2 15 6 0 14 -5 17 -11z m1130
-56 c-5 -26 -10 -40 -12 -30 -5 20 -19 23 -26 5 -3 -7 -5 3 -6 22 0 28 2 31 9
15 8 -21 8 -22 25 31 11 34 17 4 10 -43z m-1085 15 c0 -6 -7 -5 -15 2 -8 7
-15 17 -15 22 0 6 7 5 15 -2 8 -7 15 -17 15 -22z m1930 22 c0 -5 -2 -10 -4
-10 -3 0 -8 5 -11 10 -3 6 -1 10 4 10 6 0 11 -4 11 -10z m-980 -37 c0 -8 3
-12 8 -10 4 3 8 -7 9 -21 l1 -27 -19 24 c-24 30 -36 20 -20 -16 l12 -28 -25
30 c-25 31 -40 75 -24 75 5 0 11 -7 14 -15 10 -24 26 -17 18 7 -6 20 -5 21 10
9 9 -7 16 -20 16 -28z m410 11 c0 -17 -22 -14 -28 4 -2 7 3 12 12 12 9 0 16
-7 16 -16z m-463 -66 c7 -15 8 -28 3 -28 -5 0 -12 9 -15 20 -9 28 -28 25 -20
-2 5 -19 2 -17 -14 7 -12 17 -21 35 -21 40 1 6 5 2 11 -8 14 -24 32 -12 19 13
-5 10 -10 22 -9 27 0 11 32 -35 46 -69z m343 57 c43 -4 50 -6 50 -15 0 -5 -7
-10 -15 -10 -8 0 -15 4 -15 8 0 5 -7 9 -15 9 -8 0 -15 -6 -15 -14 0 -18 -17
-16 -24 3 -10 25 -7 36 6 27 7 -4 20 -8 28 -8z m-1000 -10 c0 -9 -9 -15 -22
-15 -22 1 -23 1 -4 15 25 19 26 19 26 0z m1160 0 c0 -8 -4 -15 -9 -15 -13 0
-22 16 -14 24 11 11 23 6 23 -9z m-1414 -4 c-3 -5 3 -11 14 -14 27 -7 25 -27
-2 -27 -17 0 -23 6 -24 25 -1 14 2 25 8 25 5 0 7 -4 4 -9z m192 -13 c8 -10 4
-13 -14 -14 -24 -2 -31 6 -17 19 10 10 19 8 31 -5z m1182 -3 c0 -8 -4 -15 -9
-15 -13 0 -22 16 -14 24 11 11 23 6 23 -9z m-301 -42 c2 -2 -15 -3 -38 -3 -39
0 -41 1 -31 20 10 19 12 19 38 3 15 -9 29 -18 31 -20z m-1019 -18 c0 -15 -27
-28 -41 -19 -5 3 -9 11 -8 17 0 9 2 9 6 0 8 -20 23 -15 23 8 0 11 5 17 10 14
6 -3 10 -12 10 -20z m110 15 c0 -5 -5 -10 -11 -10 -5 0 -7 5 -4 10 3 6 8 10
11 10 2 0 4 -4 4 -10z m1215 0 c3 -5 -1 -10 -9 -10 -9 0 -16 5 -16 10 0 6 4
10 9 10 6 0 13 -4 16 -10z m-1440 -59 c-3 -2 -11 2 -20 9 -8 7 -15 9 -15 4 0
-5 -4 -2 -9 6 -17 25 0 31 24 8 13 -13 22 -25 20 -27z m335 39 c0 -5 -4 -10
-10 -10 -5 0 -10 5 -10 10 0 6 5 10 10 10 6 0 10 -4 10 -10z m527 -17 c-3 -3
-18 0 -34 6 l-28 11 28 -4 c15 -2 27 2 28 8 0 6 3 5 6 -2 3 -7 3 -16 0 -19z
m363 6 c0 -14 -17 -10 -23 5 -4 10 -1 13 9 9 7 -3 14 -9 14 -14z m-200 4 c0
-1 -5 -14 -12 -28 -13 -28 -32 -35 -24 -7 4 13 1 18 -14 18 -11 0 -20 -4 -20
-8 0 -4 5 -8 11 -8 5 0 7 -5 3 -11 -3 -6 -2 -14 4 -18 7 -4 4 -15 -9 -31 -19
-25 -19 -25 -32 -5 -6 11 -14 39 -17 61 l-6 42 58 -2 c32 0 58 -2 58 -3z
m-770 -7 c0 -3 -4 -8 -10 -11 -5 -3 -10 -1 -10 4 0 6 5 11 10 11 6 0 10 -2 10
-4z m40 -30 c-14 -14 -24 0 -16 21 6 15 8 15 16 3 6 -9 5 -19 0 -24z m890 -13
c19 -35 19 -49 -3 -90 -14 -26 -24 -33 -46 -33 -77 0 -144 82 -91 110 16 9 22
8 27 -5 4 -13 8 -14 14 -4 6 10 11 10 22 1 7 -7 18 -8 22 -4 5 4 5 2 1 -5 -4
-7 -13 -10 -21 -6 -21 8 -18 -14 5 -37 11 -11 20 -15 20 -10 0 6 7 10 15 10 8
0 15 9 15 20 0 11 -5 20 -11 20 -5 0 -8 4 -5 9 4 5 3 17 0 26 -5 13 -8 14 -15
3 -7 -10 -9 -10 -9 0 0 8 -10 11 -30 7 -22 -4 -30 -1 -30 9 0 10 13 16 38 18
47 4 63 -3 82 -39z m-1250 11 c0 -8 -9 -14 -20 -14 -19 0 -27 19 -14 33 10 9
34 -4 34 -19z m238 14 c-6 -18 -28 -21 -28 -4 0 9 7 16 16 16 9 0 14 -5 12
-12z m680 1 c26 0 32 -3 19 -8 -25 -9 -87 -1 -87 11 0 6 7 7 16 4 9 -3 32 -6
52 -7z m-748 -20 c0 -12 -37 -12 -45 0 -3 5 3 11 12 13 21 5 33 0 33 -13z
m-140 -10 c0 -19 4 -20 33 -14 17 4 49 6 70 6 24 0 40 5 43 14 5 12 9 12 30
-2 33 -21 30 -36 -5 -28 -28 6 -33 3 -70 -40 -8 -10 -19 -14 -30 -9 -9 4 -30
9 -47 11 -34 5 -58 40 -48 68 9 22 24 18 24 -6z m54 0 c-8 -14 -44 -10 -44 5
0 9 8 12 25 8 14 -2 22 -8 19 -13z m854 -6 c-15 -2 -42 -2 -60 0 -18 2 -6 4
27 4 33 0 48 -2 33 -4z m-580 -15 c-6 -18 -28 -21 -28 -4 0 9 7 16 16 16 9 0
14 -5 12 -12z m597 -18 c-2 -3 -14 -6 -27 -4 -13 1 -34 3 -48 4 -23 2 -23 3 5
9 34 8 77 2 70 -9z m-165 0 c0 -5 -2 -10 -4 -10 -3 0 -8 5 -11 10 -3 6 -1 10
4 10 6 0 11 -4 11 -10z m-582 -25 c-3 -3 -9 2 -12 12 -6 14 -5 15 5 6 7 -7 10
-15 7 -18z m766 -8 c-3 -8 -12 -18 -20 -21 -11 -4 -10 0 3 18 20 26 27 28 17
3z m-47 7 c-3 -3 -12 -4 -19 -1 -8 3 -5 6 6 6 11 1 17 -2 13 -5z m-627 -19 c0
-8 -7 -15 -15 -15 -8 0 -15 7 -15 15 0 8 7 15 15 15 8 0 15 -7 15 -15z m-212
-26 c4 -36 -21 -55 -53 -41 -44 20 -24 76 25 70 18 -2 26 -10 28 -29z m55 -27
c-5 -10 -16 -17 -24 -17 -17 0 -13 56 5 67 16 11 32 -30 19 -50z m119 29 c19
-19 25 -35 21 -50 -4 -17 -2 -20 12 -15 23 9 16 -15 -9 -30 -13 -9 -19 -7 -27
7 -12 21 -86 24 -103 3 -8 -10 -18 -12 -34 -5 -30 11 -18 33 14 25 20 -5 24
-3 24 18 0 16 12 34 33 50 17 14 34 26 37 26 3 0 17 -13 32 -29z m118 4 c0 -8
-7 -15 -15 -15 -8 0 -15 7 -15 15 0 8 7 15 15 15 8 0 15 -7 15 -15z m-44 -7
c4 -6 3 -8 -4 -4 -6 3 -15 -2 -21 -11 -9 -15 -10 -15 -11 -2 0 28 23 39 36 17z
m664 -33 c0 -3 -11 2 -24 12 -13 10 -22 21 -20 25 5 7 44 -27 44 -37z m-231
18 c12 -23 -4 -53 -29 -53 -25 0 -41 29 -29 52 12 23 45 23 58 1z m156 7 c3
-5 2 -10 -4 -10 -5 0 -13 5 -16 10 -3 6 -2 10 4 10 5 0 13 -4 16 -10z m165
-22 c0 -27 -35 -19 -36 8 -1 16 3 20 17 17 11 -3 19 -14 19 -25z m-55 12 c3
-5 1 -10 -4 -10 -6 0 -11 5 -11 10 0 6 2 10 4 10 3 0 8 -4 11 -10z m-109 -28
c-10 -2 -26 3 -35 12 -15 15 -13 16 19 4 26 -9 30 -13 16 -16z m-46 -2 c19
-11 29 -19 23 -20 -7 0 -27 9 -45 20 -42 25 -24 25 22 0z m127 -10 c6 0 13 5
15 12 3 7 7 8 10 3 9 -15 -10 -55 -25 -55 -18 0 -32 18 -40 48 -5 22 -4 23 12
8 10 -9 22 -16 28 -16z m-118 -27 c1 -1 0 -7 -4 -13 -4 -7 -15 -4 -32 10 -14
11 -32 20 -40 20 -8 0 -11 4 -8 10 5 7 53 -8 84 -27z m-796 -30 c-4 -25 -10
-33 -25 -33 -17 0 -20 -5 -15 -29 6 -27 4 -29 -28 -33 -22 -2 -36 1 -39 9 -3
7 -13 13 -23 14 -12 1 -9 3 7 8 18 5 25 14 26 31 2 43 25 79 53 82 36 5 50
-11 44 -49z m1077 53 c0 -3 -4 -8 -10 -11 -5 -3 -10 -1 -10 4 0 6 5 11 10 11
6 0 10 -2 10 -4z m-85 -26 c0 -8 -8 -16 -17 -18 -13 -2 -18 3 -18 18 0 15 5
20 18 18 9 -2 17 -10 17 -18z m-219 -38 c-10 -2 -23 1 -29 7 -6 6 -19 11 -29
11 -10 0 -18 4 -18 9 0 6 21 2 48 -7 31 -11 41 -17 28 -20z m-876 18 c0 -5 -5
-10 -11 -10 -5 0 -7 5 -4 10 3 6 8 10 11 10 2 0 4 -4 4 -10z m945 0 c3 -5 2
-10 -4 -10 -5 0 -13 5 -16 10 -3 6 -2 10 4 10 5 0 13 -4 16 -10z m35 -30 c-11
-21 -44 -27 -55 -10 -4 7 2 9 18 5 17 -5 26 -2 30 9 4 9 9 16 12 16 3 0 1 -9
-5 -20z m-980 -3 c0 -8 -3 -17 -7 -20 -9 -9 -34 13 -27 24 8 14 34 11 34 -4z
m835 -7 c0 -8 -8 -16 -17 -18 -13 -2 -18 3 -18 18 0 15 5 20 18 18 9 -2 17
-10 17 -18z m73 -18 c15 -15 16 -21 6 -30 -27 -25 -71 -1 -58 32 8 21 30 20
52 -2z m-818 -8 c0 -8 -4 -12 -10 -9 -5 3 -10 10 -10 16 0 5 5 9 10 9 6 0 10
-7 10 -16z m753 -29 c4 -8 2 -17 -3 -20 -6 -4 -10 -18 -10 -32 0 -20 -4 -24
-20 -20 -23 6 -46 -18 -42 -45 4 -22 -14 -24 -34 -4 -20 21 -18 28 21 66 19
19 35 43 35 53 0 21 45 24 53 2z m-1423 -9 c0 -8 3 -22 7 -32 4 -11 3 -15 -4
-11 -13 8 -23 57 -12 57 5 0 9 -6 9 -14z m1346 -13 c-10 -10 -19 5 -10 18 6
11 8 11 12 0 2 -7 1 -15 -2 -18z m-1293 0 c-7 -2 -19 -2 -25 0 -7 3 -2 5 12 5
14 0 19 -2 13 -5z m500 -17 c6 -15 -11 -36 -29 -36 -14 0 -27 28 -18 41 8 14
41 11 47 -5z m936 -16 c8 -25 7 -32 -4 -36 -39 -16 -70 20 -45 51 19 23 37 18
49 -15z m106 20 c3 -5 1 -10 -4 -10 -6 0 -11 5 -11 10 0 6 2 10 4 10 3 0 8 -4
11 -10z m-1280 -20 c3 -5 1 -10 -4 -10 -6 0 -11 5 -11 10 0 6 2 10 4 10 3 0 8
-4 11 -10z m475 -50 c12 -8 10 -10 -10 -10 -29 0 -48 -24 -45 -57 1 -13 -2
-23 -6 -23 -13 0 -60 62 -56 73 7 22 90 34 117 17z m-211 -47 c1 -20 -15 -15
-44 11 l-26 25 28 3 c27 3 41 -10 42 -39z m39 8 c3 -8 -1 -12 -9 -9 -7 2 -15
10 -17 17 -3 8 1 12 9 9 7 -2 15 -10 17 -17z m1042 -1 c-8 -5 -10 -10 -4 -10
5 0 19 -6 29 -14 18 -13 18 -14 -4 -26 -13 -6 -21 -8 -17 -2 3 5 -1 13 -10 16
-8 3 -12 10 -9 16 3 5 0 10 -7 10 -9 0 -9 3 2 10 8 5 20 10 25 10 6 0 3 -5 -5
-10z m-66 -22 c9 -12 16 -30 16 -40 0 -24 -35 -58 -60 -58 -26 0 -60 34 -60
62 0 53 74 79 104 36z m-930 6 c9 -4 16 -17 16 -33 -1 -24 -2 -24 -14 -8 -7 9
-18 17 -25 17 -6 0 -11 7 -11 15 0 16 9 19 34 9z m274 -38 c15 -8 38 -26 52
-41 22 -25 23 -27 5 -22 -72 19 -76 19 -106 -13 -27 -28 -59 -34 -43 -8 4 6 0
14 -7 19 -11 7 -6 17 23 44 43 40 40 39 76 21z m352 -16 c0 -5 -4 -10 -10 -10
-5 0 -10 5 -10 10 0 6 5 10 10 10 6 0 10 -4 10 -10z m760 6 c0 -11 -19 -15
-25 -6 -3 5 1 10 9 10 9 0 16 -2 16 -4z m-396 -22 c3 -8 2 -12 -4 -9 -6 3 -10
10 -10 16 0 14 7 11 14 -7z m-1096 -16 c-6 -18 -28 -21 -28 -4 0 9 7 16 16 16
9 0 14 -5 12 -12z m870 -20 c-6 -18 -28 -21 -28 -4 0 9 7 16 16 16 9 0 14 -5
12 -12z m312 -2 c0 -16 -18 -31 -27 -22 -8 8 5 36 17 36 5 0 10 -6 10 -14z
m357 -12 c-3 -4 -14 -3 -24 0 -15 6 -15 8 -3 16 16 10 39 -4 27 -16z m-1688
-26 c9 -15 10 -23 2 -31 -13 -13 -64 21 -69 45 -4 22 51 11 67 -14z m426 -7
c-3 -5 -1 -12 5 -16 12 -8 13 -45 1 -45 -13 0 -21 27 -21 68 1 30 3 34 11 19
5 -9 8 -21 4 -26z m178 30 c17 -2 5 -31 -13 -31 -11 0 -20 -4 -20 -9 0 -5 -9
-11 -20 -14 -13 -3 -20 0 -20 9 0 8 -7 17 -15 20 -8 4 -15 12 -15 19 0 11 17
12 103 6z m602 -30 c0 -22 -4 -43 -7 -47 -13 -12 -64 16 -80 44 l-17 28 34 -4
c25 -3 60 6 70 18 0 0 0 -18 0 -39z m-365 -8 c0 -20 -24 -11 -28 10 -2 12 1
15 12 11 9 -3 16 -13 16 -21z m-336 11 c24 -9 19 -24 -8 -24 -26 0 -40 12 -29
24 8 8 17 8 37 0z m274 -17 c2 -12 -3 -17 -17 -17 -12 0 -21 6 -21 13 0 31 32
34 38 4z m260 -13 c2 -19 -3 -36 -12 -44 -20 -16 -21 -49 -2 -56 8 -3 12 -12
9 -20 -5 -15 4 -17 49 -14 20 1 30 -6 42 -28 14 -27 14 -31 -2 -44 -9 -8 -34
-14 -55 -13 -39 2 -59 -11 -37 -25 7 -5 19 -6 27 -3 7 3 13 1 13 -5 0 -6 3
-18 7 -28 5 -13 3 -15 -7 -9 -8 5 -18 2 -26 -10 -12 -16 -13 -15 -20 9 -4 17
-13 26 -25 26 -23 0 -25 -13 -4 -30 19 -15 11 -75 -13 -103 -15 -16 -14 -18 6
-24 12 -3 24 -14 27 -24 4 -13 16 -19 35 -19 18 0 34 -8 43 -21 13 -18 13 -24
1 -47 -8 -15 -14 -33 -14 -41 0 -8 -12 -34 -27 -58 l-28 -44 -57 3 c-56 3 -58
2 -82 -32 -17 -25 -24 -50 -24 -88 -1 -29 -7 -61 -13 -70 -10 -16 -10 -16 -5
1 3 9 1 17 -4 17 -13 0 -62 100 -64 133 -3 37 -22 49 -71 41 -46 -7 -40 -7
-84 -5 -19 0 -31 4 -28 7 3 4 -3 18 -13 32 -11 13 -20 31 -20 38 0 8 -5 14
-11 14 -6 0 -8 -7 -5 -16 14 -37 18 -64 8 -64 -6 0 -14 -9 -17 -21 -5 -15 -14
-19 -33 -17 -19 2 -28 -2 -30 -14 -4 -20 18 -24 36 -6 22 22 21 2 -1 -26 -18
-22 -31 -28 -60 -28 -39 0 -58 -15 -37 -28 7 -4 10 -12 7 -16 -9 -17 13 -54
38 -64 27 -10 44 -41 54 -100 5 -26 12 -36 28 -38 21 -3 21 -4 5 -33 -17 -29
-45 -38 -57 -19 -3 6 -14 10 -25 10 -20 0 -35 26 -20 35 16 10 11 57 -7 77 -9
10 -30 18 -50 18 -26 0 -33 4 -33 20 0 22 -24 27 -36 8 -4 -7 1 -17 14 -26 18
-12 19 -17 10 -38 -16 -34 3 -72 39 -80 15 -3 33 -7 39 -9 6 -2 10 -20 9 -40
-2 -28 -8 -40 -26 -49 -13 -6 -24 -20 -24 -31 0 -11 -8 -21 -18 -23 -22 -4
-19 -37 3 -37 20 0 40 -20 40 -39 0 -19 -47 -33 -62 -18 -6 6 -16 8 -22 6 -7
-3 -18 7 -24 21 -13 28 -6 51 22 74 9 8 13 17 10 22 -10 17 -23 9 -39 -21 -12
-23 -22 -30 -45 -30 -42 0 -59 37 -35 74 15 22 15 31 5 55 -12 30 -1 71 20 71
6 0 10 7 10 15 0 8 -7 15 -15 15 -8 0 -15 -5 -15 -12 0 -20 -32 -48 -57 -48
-15 0 -27 9 -35 26 -11 23 -9 28 18 49 16 13 41 24 56 25 38 0 61 27 54 62 -4
22 -2 28 13 28 10 0 26 9 36 20 15 17 16 24 7 45 -6 14 -18 25 -27 25 -23 0
-18 -27 7 -33 12 -4 19 -9 16 -13 -4 -3 -20 0 -35 8 -22 11 -34 12 -47 4 -13
-9 -20 -7 -31 8 -19 25 -3 46 36 46 16 0 29 5 29 10 0 6 -13 10 -28 10 -21 0
-32 7 -40 25 -7 14 -20 25 -31 25 -27 0 -45 34 -27 49 8 7 25 11 38 9 12 -2
24 0 26 5 7 22 0 36 -20 39 -16 2 -22 9 -20 21 2 9 -1 17 -6 17 -6 0 -12 15
-15 33 -4 17 -9 47 -13 65 -5 24 -3 32 7 32 22 0 37 -14 48 -44 10 -26 14 -27
50 -21 44 7 85 -12 94 -44 10 -41 118 -30 189 20 31 23 58 25 58 4 0 -8 3 -15
8 -16 125 -16 157 -15 177 1 16 14 17 31 3 125 -1 6 -10 19 -20 29 -18 20 -18
20 -16 -4 3 -20 -3 -25 -44 -36 -27 -6 -48 -10 -48 -8 0 3 64 89 75 102 2 2 2
-3 1 -10 0 -7 2 -13 6 -13 3 0 18 -11 32 -24 14 -13 31 -21 39 -18 20 8 33 -4
50 -44 13 -32 13 -39 1 -51 -18 -18 -5 -62 22 -72 22 -9 64 19 64 44 0 21 -25
50 -44 50 -7 0 -21 18 -31 39 l-17 40 27 27 c18 18 25 34 22 50 -6 35 35 60
74 44 59 -25 116 50 69 90 -44 38 -100 16 -100 -39 0 -41 -36 -55 -72 -28 -14
11 -38 20 -52 20 -27 0 -31 11 -26 79 1 14 -3 29 -8 32 -17 10 -2 42 19 43 21
2 59 -29 59 -47 0 -12 13 -13 24 -2 4 4 17 7 29 7 13 0 23 7 25 18 2 12 -3 17
-17 17 -12 0 -21 6 -21 15 0 20 20 19 50 -2 17 -12 25 -13 28 -5 4 13 32 17
32 5 0 -3 -7 -15 -17 -25 -15 -17 -15 -18 1 -18 9 0 20 8 23 18 4 9 12 21 20
25 20 12 16 37 -7 37 -11 0 -20 -4 -20 -10 0 -5 -10 -10 -22 -10 -12 0 -18 3
-15 7 4 3 2 12 -4 19 -19 23 1 35 49 32 44 -3 47 -5 50 -34z m262 14 c0 -6 11
-8 24 -6 19 4 27 -2 40 -29 15 -31 15 -33 -3 -33 -11 0 -22 9 -26 20 -5 15
-14 19 -43 18 -21 -1 -42 -8 -49 -17 -8 -12 -15 -13 -23 -5 -14 14 -3 42 22
55 16 8 19 8 13 -1 -5 -8 -3 -11 6 -8 8 3 13 10 12 16 -2 6 4 9 12 6 8 -4 15
-11 15 -16z m96 5 c7 -10 13 -29 13 -43 l0 -25 -19 24 c-19 22 -27 61 -14 61
4 0 13 -8 20 -17z m-292 -15 c23 -10 45 -46 35 -58 -2 -3 -17 -5 -34 -5 -20 0
-30 -5 -30 -15 0 -16 17 -17 48 -5 20 8 22 -3 3 -27 -9 -13 -20 -15 -40 -10
-25 7 -28 13 -31 52 -3 38 7 80 20 80 2 0 15 -5 29 -12z m-1476 -10 c-6 -18
-28 -21 -28 -4 0 9 7 16 16 16 9 0 14 -5 12 -12z m1299 -5 c3 -7 -3 -9 -16 -6
-12 3 -21 10 -21 15 0 13 32 6 37 -9z m-72 -41 c-8 -8 -25 17 -25 38 0 9 6 6
16 -8 9 -13 13 -26 9 -30z m-50 28 c3 -5 -3 -10 -15 -10 -12 0 -18 5 -15 10 3
6 10 10 15 10 5 0 12 -4 15 -10z m-908 -6 c-3 -3 -12 -4 -19 -1 -8 3 -5 6 6 6
11 1 17 -2 13 -5z m233 -14 c0 -5 -4 -10 -10 -10 -5 0 -10 -7 -10 -15 0 -22
-38 -39 -56 -25 -19 16 -9 30 22 30 14 0 27 7 30 15 7 17 24 20 24 5z m1154
-51 c-11 -12 -11 -18 -2 -27 9 -9 7 -12 -8 -12 -12 0 -25 10 -32 24 -9 20 -7
29 10 51 l20 26 13 -23 c9 -18 9 -26 -1 -39z m-1618 10 c10 -17 -13 -36 -27
-22 -12 12 -4 33 11 33 5 0 12 -5 16 -11z m1807 -3 c3 -7 2 -18 -2 -25 -6 -9
-11 -8 -21 4 -14 17 -46 20 -55 5 -8 -13 -25 -3 -25 13 0 17 97 19 103 3z
m-783 -12 c0 -2 -9 -4 -20 -4 -11 0 -20 4 -20 9 0 5 9 7 20 4 11 -3 20 -7 20
-9z m-248 -21 l60 -27 -22 -18 c-12 -10 -34 -18 -49 -18 -15 0 -51 -7 -80 -16
-29 -8 -55 -13 -58 -11 -12 13 -15 88 -3 102 19 23 86 18 152 -12z m198 17 c0
-12 -28 -25 -36 -17 -9 9 6 27 22 27 8 0 14 -5 14 -10z m110 -18 c0 -15 -2
-15 -10 -2 -13 20 -13 33 0 25 6 -3 10 -14 10 -23z m-640 8 c0 -5 -4 -10 -10
-10 -5 0 -10 5 -10 10 0 6 5 10 10 10 6 0 10 -4 10 -10z m614 -6 c9 -24 7 -28
-9 -14 -17 14 -20 30 -6 30 5 0 12 -7 15 -16z m-920 -3 c9 -13 -22 -34 -39
-27 -13 5 -14 8 -3 20 15 17 34 20 42 7z m396 -21 c0 -5 -4 -10 -10 -10 -5 0
-10 5 -10 10 0 6 5 10 10 10 6 0 10 -4 10 -10z m54 -6 c9 -23 8 -24 -14 -24
-19 0 -27 20 -13 33 11 11 20 8 27 -9z m1178 7 c20 11 49 -18 29 -30 -7 -4
-13 -22 -13 -39 -1 -31 -2 -32 -45 -32 -34 0 -49 -5 -64 -22 -16 -20 -18 -21
-19 -5 0 10 7 28 15 41 13 19 13 28 4 50 -15 32 -8 41 20 26 13 -6 21 -21 21
-35 0 -15 6 -25 14 -25 26 0 28 19 5 51 -20 28 -20 30 -3 21 12 -6 26 -7 36
-1z m-1324 -23 c-6 -18 -28 -21 -28 -4 0 9 7 16 16 16 9 0 14 -5 12 -12z m891
-10 c11 -29 4 -46 -20 -53 -38 -12 -65 35 -37 63 19 19 48 14 57 -10z m-472 6
c-3 -3 -12 -4 -19 -1 -8 3 -5 6 6 6 11 1 17 -2 13 -5z m1007 -10 c3 -8 2 -12
-4 -9 -6 3 -10 10 -10 16 0 14 7 11 14 -7z m-1554 -9 c0 -7 7 -18 16 -23 14
-8 14 -10 0 -21 -31 -25 -71 14 -46 44 16 19 30 19 30 0z m190 -21 c0 -21 -38
-38 -55 -24 -11 9 -9 15 8 34 23 23 47 18 47 -10z m-165 16 c3 -5 1 -10 -4
-10 -6 0 -11 5 -11 10 0 6 2 10 4 10 3 0 8 -4 11 -10z m276 -12 c11 -19 -14
-38 -50 -38 -21 0 -25 -7 -21 -47 1 -17 -3 -21 -15 -17 -23 9 -39 43 -27 57 6
7 12 21 14 32 4 27 13 32 54 31 22 -1 39 -8 45 -18z m-209 -3 c29 -36 52 -54
59 -49 14 8 30 -34 23 -61 -7 -29 18 -45 46 -28 13 9 19 7 28 -8 7 -11 28 -27
47 -36 40 -19 44 -36 13 -57 -46 -32 -90 -8 -62 33 9 12 13 29 10 37 -8 22
-26 7 -26 -22 0 -32 -28 -43 -47 -18 -13 17 -12 19 11 22 32 4 34 22 4 22 -13
0 -34 1 -48 2 -21 3 -25 -1 -25 -22 0 -21 -5 -25 -30 -26 -16 0 -50 2 -75 6
-28 5 -35 8 -18 9 16 1 35 12 47 27 20 25 20 27 3 62 -19 38 -20 45 -9 75 4 9
9 24 12 32 6 19 21 19 37 0z m339 -31 c-23 -26 -41 -51 -41 -55 0 -20 -21 -7
-45 28 -14 21 -25 33 -25 28 0 -6 11 -27 25 -47 25 -36 25 -38 8 -73 -9 -19
-22 -35 -30 -35 -21 0 -83 61 -83 82 0 10 4 17 9 13 12 -7 43 24 36 35 -9 14
36 38 100 54 89 21 90 20 46 -30z m105 31 c-11 -8 -25 -15 -32 -15 -21 0 -44
-42 -44 -78 0 -74 98 -112 149 -58 18 19 22 33 19 65 -2 23 1 41 6 41 14 0 56
-41 56 -55 0 -6 -19 -32 -42 -58 -38 -43 -49 -49 -95 -54 -51 -6 -52 -5 -107
47 -31 29 -56 56 -56 59 0 4 23 33 51 64 42 47 56 57 82 57 30 -1 31 -1 13
-15z m160 4 c47 -12 53 -19 29 -39 -20 -17 -68 -4 -95 26 l-23 24 22 0 c12 0
42 -5 67 -11z m-101 -19 c3 -6 -1 -7 -9 -4 -18 7 -21 14 -7 14 6 0 13 -4 16
-10z m985 0 c0 -5 -4 -10 -10 -10 -5 0 -10 5 -10 10 0 6 5 10 10 10 6 0 10 -4
10 -10z m-728 -22 c16 -31 17 -38 1 -70 -18 -37 -26 -35 -18 3 6 25 2 36 -21
60 l-28 29 27 0 c17 0 31 -8 39 -22z m-47 -13 c29 -28 31 -42 8 -67 -21 -23
-36 -23 -57 1 -12 13 -15 27 -10 47 13 53 22 56 59 19z m338 -27 c7 -21 -12
-48 -34 -48 -17 0 -18 3 -9 20 6 12 8 30 5 41 -6 18 -4 19 13 10 11 -6 22 -16
25 -23z m-433 6 c0 -14 -3 -14 -15 -4 -8 7 -15 14 -15 16 0 2 7 4 15 4 8 0 15
-7 15 -16z m-896 -25 c-3 -5 -10 -7 -15 -3 -5 3 -7 10 -3 15 3 5 10 7 15 3 5
-3 7 -10 3 -15z m1606 6 c-7 -8 -19 -15 -26 -15 -8 0 -11 6 -8 15 4 8 15 15
26 15 17 0 18 -3 8 -15z m71 5 c29 -16 50 -64 43 -99 -9 -44 -49 -85 -77 -77
-12 3 -27 6 -32 6 -6 0 -25 13 -43 29 -35 33 -43 79 -18 100 22 18 55 -4 63
-40 3 -16 12 -29 19 -29 18 0 18 15 -2 46 -14 20 -15 30 -6 49 13 27 23 30 53
15z m-1281 -35 c0 -8 -4 -15 -10 -15 -5 0 -10 7 -10 15 0 8 5 15 10 15 6 0 10
-7 10 -15z m-545 -36 c-3 -4 -1 -10 5 -14 13 -8 13 -45 0 -45 -5 0 -12 12 -15
28 -4 15 -10 34 -15 43 -5 9 -6 20 -2 23 8 9 33 -24 27 -35z m142 13 c-10 -10
-17 -24 -17 -30 0 -7 -4 -12 -10 -12 -11 0 -12 6 -4 38 4 14 14 22 27 22 19 0
19 -1 4 -18z m663 -70 c0 -3 -50 4 -97 14 -27 5 -29 21 -7 53 l16 23 44 -43
c24 -24 44 -45 44 -47z m-723 40 c-10 -2 -26 -1 -35 3 -14 5 -14 8 -2 15 8 5
22 4 34 -3 19 -10 20 -11 3 -15z m1013 -32 c6 -12 10 -38 8 -58 l-3 -37 -57
-3 c-54 -3 -59 -1 -70 23 -10 23 -16 26 -42 21 l-31 -6 30 25 c17 13 39 25 50
25 11 1 36 8 55 15 47 18 48 18 60 -5z m-320 -17 c52 -6 100 -26 100 -43 0
-18 -100 -60 -144 -60 -50 0 -59 9 -58 58 0 63 1 65 25 58 12 -3 47 -9 77 -13z
m-400 -14 c0 -20 -21 -49 -32 -43 -7 4 -8 -4 -3 -25 5 -24 3 -31 -8 -31 -21 0
-39 26 -39 55 0 14 5 32 12 40 14 17 70 21 70 4z m530 -4 c-10 -12 -16 -13
-29 -3 -9 7 -18 14 -20 15 -2 2 10 3 29 3 28 0 31 -2 20 -15z m-514 -61 c-4
-14 -11 -22 -16 -19 -5 3 -4 19 2 37 13 36 24 21 14 -18z m849 16 c0 -18 -6
-26 -22 -28 -13 -2 -24 1 -24 7 -1 6 -2 17 -3 24 -4 21 5 28 27 25 16 -2 22
-10 22 -28z m-775 1 c12 -23 3 -51 -16 -51 -15 0 -17 12 -8 48 8 27 10 27 24
3z m1224 3 c3 -8 2 -12 -4 -9 -6 3 -10 10 -10 16 0 14 7 11 14 -7z m-1459 -65
c10 -15 -1 -23 -20 -15 -9 3 -13 10 -10 16 8 13 22 13 30 -1z m72 -9 c14 -11
33 -20 42 -20 21 -1 53 -45 49 -68 -2 -9 -13 -18 -26 -20 -16 -3 -25 3 -32 22
-7 18 -17 26 -34 26 -16 0 -27 7 -31 20 -3 11 -11 20 -16 20 -23 0 -7 33 19
39 2 1 15 -8 29 -19z m136 -29 c-6 -23 -4 -24 9 -13 20 16 32 0 15 -21 -9 -12
-17 -13 -37 -5 -14 6 -20 12 -13 15 8 3 10 15 6 34 -5 24 -3 28 11 23 12 -4
14 -13 9 -33z m-119 -67 c3 -9 2 -23 -4 -32 -8 -15 -9 -14 -10 6 0 12 -4 22
-9 22 -6 0 -8 -9 -6 -20 5 -25 -11 -26 -24 -2 -7 13 -6 23 1 30 17 17 45 15
52 -4z m736 -69 c7 -8 19 -15 26 -15 7 0 23 -19 34 -42 23 -48 25 -61 6 -35
-8 10 -16 18 -18 17 -1 -1 -16 3 -31 9 -16 6 -39 11 -52 11 -17 0 -26 8 -35
33 l-12 32 -9 -25 c-6 -14 -18 -32 -28 -40 -11 -8 -22 -25 -26 -38 -6 -21 -5
-22 12 -11 11 6 25 25 31 41 11 30 32 31 32 2 0 -9 7 -22 15 -30 18 -18 20
-37 3 -32 -14 5 -58 -39 -58 -57 0 -7 9 -20 20 -30 18 -17 19 -20 5 -28 -23
-13 -73 13 -84 44 -8 23 -6 28 10 32 22 6 26 35 5 43 -44 17 -8 119 44 127 58
9 98 6 110 -8z m-1260 -47 c0 -12 6 -19 18 -17 9 1 24 -1 32 -5 8 -3 36 -2 62
2 43 9 49 7 72 -17 15 -15 26 -32 26 -38 0 -18 -31 -24 -46 -8 -19 19 -24 19
-62 -1 -18 -8 -36 -13 -41 -10 -5 3 -8 -11 -7 -31 1 -26 -5 -45 -21 -63 -21
-23 -24 -24 -34 -7 -13 22 -35 22 -47 0 -7 -12 -17 -14 -42 -9 -18 3 -39 11
-46 16 -20 17 -5 49 25 52 25 3 26 5 24 58 -1 30 -5 65 -8 76 -6 19 -1 23 32
31 43 11 63 2 63 -29z m655 21 c6 -19 -16 -48 -38 -49 -14 0 -20 31 -9 42 9 9
10 5 7 -12 -4 -18 -2 -21 7 -12 10 10 10 17 0 32 -11 17 -10 20 7 20 11 0 23
-9 26 -21z m365 -58 c-8 -15 -8 -27 0 -41 12 -22 1 -27 -18 -8 -17 17 -15 44
4 63 21 21 29 13 14 -14z m248 -1 c10 -17 10 -21 -3 -26 -23 -9 -45 3 -45 26
0 26 31 26 48 0z m-634 -6 c19 -7 21 -47 3 -62 -9 -8 -19 -6 -35 6 -21 16 -21
19 -7 40 18 25 17 24 39 16z m436 -16 c0 -16 -3 -19 -11 -11 -6 6 -8 16 -5 22
11 17 16 13 16 -11z m-235 2 c4 -6 -1 -7 -11 -3 -13 5 -15 3 -9 -7 5 -9 4 -11
-4 -6 -6 4 -9 12 -6 17 8 12 22 12 30 -1z m-55 -8 c0 -5 -11 -14 -25 -20 -13
-6 -27 -22 -31 -35 -5 -23 -8 -24 -37 -14 -42 15 -42 14 -27 32 7 8 25 15 40
15 16 0 30 7 34 15 6 16 46 21 46 7z m555 -12 c-3 -5 -16 -10 -29 -10 -45 0
-61 -45 -29 -84 9 -12 2 -7 -16 10 l-32 31 28 31 c19 22 36 32 56 32 16 0 26
-4 22 -10z m-923 -48 c-5 -14 -3 -15 10 -4 13 10 17 10 21 0 5 -16 -49 -22
-59 -7 -10 16 4 39 20 33 9 -3 12 -12 8 -22z m155 -34 c-2 -13 -4 -3 -4 22 0
25 2 35 4 23 2 -13 2 -33 0 -45z m223 51 c0 -19 -21 -50 -31 -44 -5 4 -9 0 -9
-7 0 -10 -3 -9 -9 2 -12 17 -4 33 11 24 8 -5 9 -1 4 11 -5 15 -4 16 9 5 13
-11 14 -10 9 4 -3 9 -1 16 5 16 6 0 11 -5 11 -11z m415 -22 c-1 -17 3 -23 10
-17 6 5 18 -2 29 -17 l19 -26 -29 7 c-62 16 -89 47 -62 74 18 18 33 8 33 -21z
m-612 -18 c-8 -29 -13 -23 -13 14 0 22 3 28 9 18 5 -7 6 -22 4 -32z m-266 6
c0 -8 -4 -15 -9 -15 -4 0 -8 7 -8 15 0 8 4 15 8 15 5 0 9 -7 9 -15z m353 -11
c0 -2 -9 -8 -20 -14 -15 -8 -18 -8 -14 3 4 11 34 21 34 11z m-250 -24 c6 -11
8 -21 5 -21 -3 -1 -11 -2 -17 -3 -7 -1 -12 -7 -10 -14 1 -7 -2 -12 -8 -12 -5
0 -10 9 -10 21 0 11 4 18 9 14 5 -3 12 -1 16 5 6 9 -8 14 -28 11 -5 -1 -6 3
-2 9 10 16 34 11 45 -10z m-93 -7 c-9 -9 -19 -14 -23 -11 -10 10 6 28 24 28
15 0 15 -1 -1 -17z m637 -9 c27 -26 12 -58 -25 -52 -27 3 -37 32 -19 53 16 19
25 19 44 -1z m271 -4 c18 -8 17 -9 -7 -9 -16 -1 -28 4 -28 9 0 12 8 12 35 0z
m-905 -14 c0 -2 -7 -7 -16 -10 -8 -3 -12 -2 -9 4 6 10 25 14 25 6z m1250 -21
c0 -28 20 -35 21 -7 0 13 2 12 9 -5 5 -13 15 -23 22 -23 6 0 3 -6 -8 -14 -17
-13 -20 -13 -26 2 -5 14 -7 12 -7 -5 -1 -13 -5 -23 -10 -23 -5 0 -11 10 -15
23 -9 35 -7 77 4 77 6 0 10 -11 10 -25z m-479 -3 c-7 -2 -18 1 -23 6 -8 8 -4
9 13 5 13 -4 18 -8 10 -11z m225 -9 c-8 -8 -36 5 -36 17 0 7 6 7 21 0 11 -7
18 -14 15 -17z m400 12 c-3 -8 -1 -15 3 -15 5 0 11 7 15 15 9 25 24 17 18 -11
-3 -19 -1 -25 7 -20 6 4 11 14 11 22 0 8 5 14 10 14 6 0 8 -11 4 -27 -7 -26
-6 -27 11 -13 17 14 18 13 12 -4 -4 -11 -3 -22 2 -25 5 -4 -1 -11 -13 -17 -21
-10 -23 -9 -19 10 4 19 3 19 -16 -4 l-22 -25 7 30 6 30 -22 -25 -21 -25 6 35
c6 33 5 34 -10 16 -8 -11 -15 -24 -15 -29 0 -4 -5 -5 -10 -2 -6 4 -7 11 -4 17
4 6 0 14 -7 19 -11 7 -11 9 2 9 9 0 19 9 22 20 3 11 11 20 17 20 7 0 10 -7 6
-15z m-1756 1 c0 -3 -4 -8 -10 -11 -5 -3 -10 -1 -10 4 0 6 5 11 10 11 6 0 10
-2 10 -4z m1229 -12 c17 -4 31 -13 31 -20 0 -18 -34 -18 -50 0 -6 8 -24 17
-38 19 l-27 4 26 2 c15 0 41 -2 58 -5z m171 -4 c0 -5 -5 -10 -11 -10 -5 0 -7
5 -4 10 3 6 8 10 11 10 2 0 4 -4 4 -10z m-80 -25 c0 -8 -9 -15 -20 -15 -11 0
-20 7 -20 15 0 8 9 15 20 15 11 0 20 -7 20 -15z m-1380 1 c0 -2 -9 -6 -20 -9
-11 -3 -20 -1 -20 4 0 5 9 9 20 9 11 0 20 -2 20 -4z m1254 -12 c20 -19 20 -29
0 -48 -19 -20 -54 -5 -54 24 0 15 21 37 37 40 1 0 9 -7 17 -16z m-859 -41 c7
-28 -15 -60 -52 -74 -13 -5 -23 -16 -23 -26 -1 -30 -37 -65 -60 -58 -21 7 -26
20 -11 29 4 3 11 19 14 36 5 21 12 30 26 30 25 0 50 40 44 71 -4 24 -2 25 25
21 22 -3 32 -11 37 -29z m-75 0 c0 -6 -9 -9 -20 -6 -30 8 -33 21 -5 19 14 0
25 -6 25 -13z m798 -6 c2 -12 -3 -17 -17 -17 -12 0 -21 6 -21 13 0 31 32 34
38 4z m852 4 c0 -5 10 -7 23 -4 22 5 22 5 2 -11 -20 -17 -19 -17 7 -12 15 4
30 2 33 -4 3 -6 -5 -10 -19 -10 -38 0 -42 -20 -4 -22 l33 -1 -32 -4 c-40 -5
-44 -23 -5 -24 24 0 25 -1 7 -9 -28 -12 -85 -12 -85 0 0 6 9 10 20 10 11 0 20
5 20 11 0 6 -9 9 -20 6 -11 -3 -23 -1 -26 4 -3 5 7 9 23 9 l28 1 -25 15 c-23
14 -23 14 -2 9 12 -4 22 -4 22 0 0 3 -10 10 -22 15 -21 8 -21 9 -3 10 17 0 17
2 5 10 -13 8 -12 10 3 10 9 0 17 -4 17 -9z m-1913 -33 c-3 -7 -5 -2 -5 12 0
14 2 19 5 13 2 -7 2 -19 0 -25z m1067 -25 c4 -9 2 -21 -4 -27 -32 -32 5 -96
57 -96 28 0 37 -14 18 -30 -8 -7 -18 -30 -21 -52 -8 -46 -13 -50 -53 -42 -24
5 -31 12 -31 30 0 13 5 24 11 24 6 0 9 7 6 14 -4 10 -1 13 7 10 8 -3 17 -1 21
5 3 7 0 8 -9 5 -11 -4 -16 0 -16 10 0 10 -8 16 -22 15 -22 0 -22 -1 -3 -9 19
-8 19 -9 -2 -9 -18 -1 -23 6 -29 44 -4 28 -11 45 -20 45 -23 0 -16 18 9 22 16
2 23 11 25 31 3 21 9 27 27 27 12 0 26 -8 29 -17z m-74 -13 c0 -5 -4 -10 -10
-10 -5 0 -10 5 -10 10 0 6 5 10 10 10 6 0 10 -4 10 -10z m143 -32 c15 -23 1
-48 -27 -48 -33 0 -46 38 -20 57 21 15 34 13 47 -9z m-785 -26 c37 -35 49
-104 19 -110 -32 -6 -72 72 -60 118 7 25 5 25 41 -8z m1277 4 c19 -8 35 -20
35 -25 0 -16 -16 -13 -30 4 -7 8 -18 15 -26 15 -7 0 -16 5 -19 10 -8 13 -1 13
40 -4z m-1335 -21 c0 -14 9 -45 21 -68 12 -23 15 -36 8 -29 -7 6 -24 12 -38
12 -15 0 -33 10 -43 24 -15 21 -15 24 9 54 30 39 43 41 43 7z m1653 18 c-7 -2
-19 -2 -25 0 -7 3 -2 5 12 5 14 0 19 -2 13 -5z m-1773 -23 c0 -5 -2 -10 -4
-10 -3 0 -8 5 -11 10 -3 6 -1 10 4 10 6 0 11 -4 11 -10z m686 -30 c11 -33 14
-35 55 -35 50 0 59 -18 19 -38 -14 -7 -26 -23 -28 -35 -4 -24 -17 -29 -28 -11
-3 6 -21 9 -40 7 -33 -4 -50 10 -45 39 1 7 -6 24 -15 38 -15 22 -15 29 -3 51
10 20 19 24 43 22 25 -2 33 -9 42 -38z m779 8 c20 -19 19 -19 -23 0 -54 24
-66 36 -27 27 17 -4 39 -16 50 -27z m65 0 c0 -6 -6 -5 -15 2 -8 7 -15 14 -15
16 0 2 7 1 15 -2 8 -4 15 -11 15 -16z m-1492 -15 c6 -19 -25 -16 -32 3 -4 11
-1 14 11 12 9 -2 18 -9 21 -15z m1413 -9 c10 -13 8 -13 -16 -4 -22 8 -30 8
-36 -2 -6 -9 -8 -6 -7 8 2 16 7 19 25 16 12 -2 28 -11 34 -18z m314 16 c-3 -5
-11 -10 -16 -10 -6 0 -7 5 -4 10 3 6 11 10 16 10 6 0 7 -4 4 -10z m24 -16
c-14 -17 -59 -37 -66 -30 -4 4 63 44 76 46 2 0 -3 -7 -10 -16z m-729 -24 c11
-11 20 -29 20 -40 0 -11 -9 -29 -20 -40 -11 -11 -29 -20 -40 -20 -11 0 -29 9
-40 20 -11 11 -20 29 -20 40 0 11 9 29 20 40 11 11 29 20 40 20 11 0 29 -9 40
-20z m758 4 c-16 -8 -28 -19 -28 -24 0 -14 7 -13 35 6 13 9 30 14 36 12 14 -5
-50 -46 -98 -64 -18 -6 -33 -8 -33 -3 0 5 4 9 8 9 5 0 17 7 28 15 18 15 17 16
-16 9 -19 -3 -32 -3 -28 1 13 14 93 54 108 54 8 0 3 -7 -12 -15z m-993 -14 c3
-5 1 -10 -4 -10 -6 0 -11 5 -11 10 0 6 2 10 4 10 3 0 8 -4 11 -10z m375 0 c0
-5 -5 -10 -11 -10 -5 0 -7 5 -4 10 3 6 8 10 11 10 2 0 4 -4 4 -10z m-35 -35
c-2 -37 -15 -43 -15 -7 0 18 4 32 8 32 4 0 7 -11 7 -25z m75 3 c0 -13 -23 -5
-28 10 -2 7 2 10 12 6 9 -3 16 -11 16 -16z m-1107 -25 c3 -16 3 -31 0 -35 -8
-15 -51 -8 -57 8 -11 28 3 54 29 54 17 0 24 -7 28 -27z m1317 11 c0 -2 -9 -4
-20 -4 -11 0 -20 4 -20 9 0 5 9 7 20 4 11 -3 20 -7 20 -9z m-683 -10 c-3 -4
-2 -15 3 -24 7 -14 6 -18 -5 -16 -8 1 -18 6 -22 11 -5 4 -2 5 6 0 11 -6 13 -4
8 7 -5 15 0 28 11 28 3 0 2 -3 -1 -6z m689 -5 c4 3 4 0 0 -6 -4 -7 -14 -13
-22 -13 -8 0 -14 -7 -14 -15 0 -10 -9 -15 -27 -14 -24 2 -25 2 -5 6 27 5 29
23 2 23 -19 0 -26 11 -14 22 3 3 20 2 39 -2 19 -4 37 -5 41 -1z m-849 -21 c-3
-8 -6 -5 -6 6 -1 11 2 17 5 13 3 -3 4 -12 1 -19z m-409 -45 c-18 -6 -36 -12
-40 -12 -13 -2 -9 23 8 48 l16 22 25 -23 24 -23 -33 -12z m464 25 c-8 -8 -9
-4 -5 13 4 13 8 18 11 10 2 -7 -1 -18 -6 -23z m238 -4 c0 -16 -16 -19 -25 -4
-8 13 4 32 16 25 5 -4 9 -13 9 -21z m250 -4 c0 -5 -4 -10 -10 -10 -5 0 -10 5
-10 10 0 6 5 10 10 10 6 0 10 -4 10 -10z m328 -7 c-2 -10 -11 -18 -21 -19 -12
-1 -13 -1 -2 3 18 5 20 19 3 26 -8 3 -5 6 5 6 12 1 17 -5 15 -16z m312 7 c0
-5 -4 -10 -10 -10 -5 0 -10 5 -10 10 0 6 5 10 10 10 6 0 10 -4 10 -10z m-367
-17 c-7 -2 -19 -2 -25 0 -7 3 -2 5 12 5 14 0 19 -2 13 -5z m267 -3 c0 -5 -7
-10 -16 -10 -8 0 -12 5 -9 10 3 6 10 10 16 10 5 0 9 -4 9 -10z m195 -20 c3 -5
-1 -10 -10 -10 -9 0 -13 5 -10 10 3 6 8 10 10 10 2 0 7 -4 10 -10z m-1305 -12
c0 -4 -4 -8 -9 -8 -6 0 -12 4 -15 8 -3 5 1 9 9 9 8 0 15 -4 15 -9z m837 5 c-9
-2 -15 -9 -12 -14 4 -5 1 -9 -4 -9 -12 0 -14 13 -4 23 3 4 13 6 22 6 13 -1 12
-2 -2 -6z m-106 -53 c5 0 9 8 9 17 0 15 2 14 15 -3 8 -10 14 -26 15 -34 0 -13
-1 -13 -10 0 -13 21 -23 5 -11 -18 8 -16 7 -21 -5 -26 -8 -3 -12 -2 -9 3 3 6
-4 26 -15 46 -11 19 -20 43 -19 53 0 10 5 6 11 -10 5 -16 14 -28 19 -28z m-16
-50 c8 -25 8 -25 -14 -6 -19 17 -21 17 -21 3 0 -17 -15 -23 -23 -9 -3 4 -8 23
-12 42 -7 34 -6 35 10 13 22 -31 37 -29 25 3 -6 14 -10 28 -10 32 0 12 38 -52
45 -78z m-175 30 c0 -18 -5 -30 -13 -30 -9 0 -12 10 -9 30 2 17 8 30 13 30 5
0 9 -13 9 -30z m21 -33 c-8 -8 -11 -5 -11 9 0 27 14 41 18 19 2 -9 -1 -22 -7
-28z m-344 7 c-3 -4 0 -16 8 -28 8 -11 15 -30 15 -41 0 -15 2 -17 9 -6 5 8 7
20 4 28 -8 21 5 15 18 -8 6 -12 7 -19 1 -15 -5 3 -12 -3 -15 -14 -3 -11 -13
-20 -22 -20 -9 0 -14 4 -11 9 4 5 -1 8 -9 7 -28 -4 -26 -14 4 -24 17 -6 31
-14 31 -18 0 -9 -45 -51 -62 -57 -7 -2 -9 -8 -5 -13 4 -5 12 -3 16 4 4 8 15
10 26 6 15 -6 17 -4 12 10 -4 10 -3 15 3 11 6 -3 10 -1 10 6 0 7 3 10 6 7 3
-4 1 -15 -5 -26 -8 -15 -8 -22 2 -26 6 -4 3 -5 -8 -3 -11 1 -31 -8 -44 -22
-19 -20 -20 -23 -5 -17 14 5 16 4 8 -4 -18 -18 -46 0 -41 26 2 13 1 24 -3 24
-4 0 -10 9 -13 20 -6 24 12 90 25 90 5 0 6 5 3 10 -3 6 1 10 10 10 11 0 15 5
11 15 -6 16 9 65 20 65 4 0 4 -3 1 -6z m431 -67 c-12 -12 -17 -26 -13 -38 5
-14 -2 -24 -28 -39 -37 -22 -52 -45 -40 -63 4 -6 0 -8 -11 -4 -20 8 -56 -25
-56 -52 0 -45 57 -66 92 -34 22 20 23 46 2 67 -9 10 -11 16 -4 16 6 0 10 10 8
23 -2 16 5 26 27 38 17 9 33 15 38 12 13 -8 7 -61 -8 -67 -8 -3 -15 -15 -15
-27 0 -17 5 -20 25 -16 22 4 28 -1 41 -32 8 -20 24 -45 35 -57 25 -27 11 -39
-36 -30 -24 5 -35 13 -39 31 -7 28 -41 42 -61 25 -19 -16 -19 -49 0 -56 21 -8
19 -38 -5 -59 -27 -24 -16 -36 30 -31 31 4 39 1 43 -15 3 -11 14 -19 25 -19
22 0 32 -25 22 -54 -4 -14 -9 -16 -14 -8 -16 26 -26 9 -27 -45 -1 -65 -10
-105 -22 -103 -5 1 -14 -6 -21 -15 -11 -16 -14 -15 -29 9 -21 31 -47 34 -65 6
-8 -13 -23 -20 -41 -20 -26 0 -29 3 -27 26 4 34 41 56 72 42 36 -17 71 -2 83
34 11 30 10 35 -14 56 -28 24 -50 28 -60 12 -3 -5 3 -10 14 -10 11 0 27 -10
35 -22 20 -28 4 -58 -29 -58 -30 0 -52 34 -35 55 9 11 8 22 -4 46 -9 18 -17
44 -17 58 -1 25 -2 25 -8 -4 -5 -25 -8 -27 -14 -12 -4 11 -12 15 -19 11 -7 -4
-5 1 4 12 17 19 16 20 -20 19 -24 0 -36 -4 -34 -12 1 -7 -4 -13 -12 -13 -24 0
-29 -19 -13 -44 8 -12 17 -33 19 -46 4 -32 66 -48 86 -23 10 15 12 14 12 -10
0 -18 -8 -31 -27 -40 -24 -13 -28 -13 -42 5 -9 10 -29 21 -46 24 -38 7 -47 21
-40 61 3 18 1 41 -5 52 -14 27 1 63 33 80 23 12 29 12 51 -3 21 -13 29 -14 45
-4 15 9 17 17 10 34 -7 19 -3 27 19 45 24 20 21 21 -22 3 -9 -4 -16 6 -21 33
-8 46 -13 55 -26 47 -6 -3 -6 -10 -1 -17 5 -7 12 -20 15 -30 6 -17 5 -17 -53
-3 -3 0 -6 -3 -7 -9 -2 -5 3 -10 10 -11 6 0 23 -2 36 -2 18 -2 22 -6 18 -22
-3 -10 0 -21 7 -24 6 -3 -1 -3 -16 0 -17 4 -28 2 -28 -5 0 -19 -28 -12 -35 9
-3 11 -15 20 -25 20 -25 0 -46 -38 -31 -53 18 -18 12 -45 -16 -72 -42 -38 -83
-28 -83 21 0 48 9 55 46 39 19 -8 34 -11 34 -7 0 9 -43 37 -53 34 -4 -1 -5 19
-2 45 l5 48 -16 -35 c-21 -46 -19 -45 -50 -25 -22 14 -28 15 -35 4 -6 -10 -9
-8 -9 9 0 12 -7 25 -15 28 -8 4 -12 10 -9 15 3 5 1 9 -5 9 -14 0 -26 -22 -22
-44 2 -12 -1 -16 -9 -11 -6 4 -10 16 -7 26 7 27 -12 35 -28 13 -8 -11 -15 -14
-15 -7 0 19 22 27 80 29 30 1 56 7 58 13 2 7 9 8 22 1 13 -7 19 -6 23 5 4 10
1 12 -11 8 -22 -8 -8 7 19 21 21 11 31 32 30 69 0 9 5 15 11 11 5 -3 8 -17 5
-30 -2 -13 0 -24 4 -24 7 0 14 65 10 92 -2 13 93 -4 108 -18 11 -10 13 -20 5
-41 -8 -24 -22 -34 -84 -63 -22 -10 -25 -42 -5 -56 25 -19 43 -7 65 43 15 34
28 48 60 61 46 20 58 43 36 74 -26 37 -21 58 16 58 24 0 40 9 67 39 l35 39 32
-26 c30 -26 30 -27 12 -45z m-908 53 c0 -5 -7 -10 -16 -10 -8 0 -12 5 -9 10 3
6 10 10 16 10 5 0 9 -4 9 -10z m276 -10 c0 -12 -4 -16 -9 -11 -5 5 -6 14 -3
20 10 15 12 14 12 -9z m470 -27 c-11 -11 -17 4 -9 23 7 18 8 18 11 1 2 -10 1
-21 -2 -24z m-789 -5 c-3 -7 -5 -2 -5 12 0 14 2 19 5 13 2 -7 2 -19 0 -25z
m320 -62 c2 -43 -2 -66 -10 -69 -16 -6 -20 85 -3 95 8 5 7 8 -3 8 -11 0 -11 3
-1 15 7 8 13 15 14 15 0 0 2 -29 3 -64z m-209 26 c6 -18 -15 -14 -22 4 -4 10
-1 14 6 12 6 -2 14 -10 16 -16z m1136 -11 c-2 -3 -12 3 -22 13 -16 17 -16 18
5 5 12 -7 20 -15 17 -18z m-1169 9 c4 -6 3 -10 -2 -9 -20 3 -34 -2 -28 -11 3
-5 13 -6 23 -3 14 5 15 3 5 -7 -9 -10 -16 -10 -26 -2 -10 9 -16 9 -25 0 -9 -9
-12 -6 -11 13 0 13 3 18 6 12 4 -10 10 -10 26 2 25 18 24 18 32 5z m202 -42
c-3 -7 -5 -2 -5 12 0 14 2 19 5 13 2 -7 2 -19 0 -25z m933 -40 c0 -10 8 -22
18 -25 26 -10 32 -24 25 -65 -3 -21 -1 -44 5 -50 12 -15 -1 -36 -36 -56 -20
-11 -22 -10 -22 8 0 24 -35 28 -44 5 -3 -8 -15 -15 -26 -15 -16 0 -20 7 -20
30 0 17 0 33 0 38 0 4 5 8 10 8 6 1 15 2 20 3 6 0 10 10 10 22 0 11 9 33 20
49 l20 28 -25 18 c-31 23 -31 32 -2 36 28 5 47 -9 47 -34z m-933 0 c-3 -8 -6
-5 -6 6 -1 11 2 17 5 13 3 -3 4 -12 1 -19z m973 7 c0 -8 -7 -15 -15 -15 -16 0
-20 12 -8 23 11 12 23 8 23 -8z m-1244 -67 c1 -9 12 -27 23 -39 16 -18 24 -20
33 -11 16 16 33 15 19 -1 -18 -22 0 -28 28 -9 14 10 38 19 54 21 21 2 27 -2
27 -18 0 -11 4 -22 8 -25 5 -3 6 9 4 27 -4 30 -3 31 13 15 17 -16 17 -18 1
-42 -16 -26 -16 -26 10 -26 23 0 25 -3 20 -24 -4 -18 -1 -29 15 -39 11 -8 16
-18 11 -21 -6 -3 -12 -1 -14 5 -2 7 -12 7 -31 -2 -23 -10 -30 -10 -45 4 -26
24 -32 21 -32 -16 0 -28 -5 -36 -37 -51 l-36 -17 17 23 c37 51 38 61 16 111
-16 35 -26 47 -43 47 -41 0 -62 11 -80 41 -9 17 -21 28 -26 24 -5 -3 -13 0
-17 6 -7 12 15 31 28 23 4 -3 8 0 8 6 0 18 23 6 26 -12z m1063 -6 c22 -22 28
-36 26 -67 -2 -43 -14 -47 -47 -18 -21 19 -42 79 -34 98 8 22 24 18 55 -13z
m249 -14 c30 -30 0 -68 -39 -48 -24 13 -24 29 -1 46 21 17 25 17 40 2z m-1338
-48 c0 -9 -28 -40 -36 -40 -3 0 -2 5 1 10 4 6 -5 10 -20 10 -23 0 -25 2 -14
22 10 19 12 19 21 5 5 -10 16 -17 24 -17 14 0 14 2 0 16 -22 21 -20 27 4 14
11 -6 20 -15 20 -20z m487 24 c-3 -3 -12 -4 -19 -1 -8 3 -5 6 6 6 11 1 17 -2
13 -5z m893 -84 c0 -5 -4 -10 -10 -10 -5 0 -10 5 -10 10 0 6 5 10 10 10 6 0
10 -4 10 -10z m-400 -24 c0 -8 -4 -18 -10 -21 -5 -3 -10 3 -10 14 0 12 5 21
10 21 6 0 10 -6 10 -14z m-272 -13 c-5 -26 -38 -29 -38 -4 0 15 6 21 21 21 14
0 19 -5 17 -17z m382 5 c15 -10 22 -10 32 0 19 19 71 15 85 -7 9 -15 9 -25 0
-45 -14 -31 -23 -32 -39 -6 -15 23 -67 27 -86 8 -10 -10 -17 -10 -32 0 -11 6
-27 12 -35 12 -9 0 -15 9 -15 25 0 22 4 25 35 25 19 0 44 -6 55 -12z m173 6
c11 -11 -3 -24 -18 -18 -8 4 -12 10 -9 15 6 11 18 12 27 3z m-463 -24 c0 -5
-4 -10 -10 -10 -5 0 -10 5 -10 10 0 6 5 10 10 10 6 0 10 -4 10 -10z m540 0 c0
-5 -5 -10 -11 -10 -5 0 -7 5 -4 10 3 6 8 10 11 10 2 0 4 -4 4 -10z m-355 -20
c3 -5 1 -10 -4 -10 -6 0 -11 5 -11 10 0 6 2 10 4 10 3 0 8 -4 11 -10z m-694
-42 c11 -21 11 -22 -4 -9 -17 14 -21 10 -18 -21 2 -13 -3 -16 -16 -11 -17 6
-17 5 0 -14 24 -28 23 -47 -3 -31 -23 15 -24 20 -9 71 11 42 32 48 50 15z m34
3 c3 -5 1 -12 -4 -15 -5 -3 -11 1 -15 9 -6 16 9 21 19 6z m455 -1 c0 -5 -5
-10 -11 -10 -5 0 -7 5 -4 10 3 6 8 10 11 10 2 0 4 -4 4 -10z m-550 -4 c0 -11
-19 -15 -25 -6 -3 5 1 10 9 10 9 0 16 -2 16 -4z m-63 -27 c-4 -15 1 -23 19
-31 13 -6 24 -17 24 -25 0 -19 -8 -16 -52 19 l-40 31 24 13 c31 17 31 17 25
-7z m53 -14 c0 -8 -4 -15 -8 -15 -13 0 -32 23 -32 37 0 11 5 11 20 3 11 -6 20
-17 20 -25z m579 9 c3 -4 -6 -4 -21 0 -22 5 -28 3 -28 -10 0 -13 -3 -14 -15
-4 -8 7 -13 16 -10 20 6 9 64 4 74 -6z m-240 -20 c-6 -8 -17 -14 -23 -14 -6 0
-3 5 7 11 9 6 14 15 11 21 -4 7 -2 8 5 4 9 -6 9 -11 0 -22z m117 -13 c-10 -16
-36 -13 -43 5 -8 22 18 37 36 20 7 -8 10 -19 7 -25z m174 -16 c0 -8 -4 -15
-10 -15 -5 0 -10 7 -10 15 0 8 5 15 10 15 6 0 10 -7 10 -15z m-80 -27 c0 -5
-4 -8 -10 -8 -5 0 -10 10 -10 23 0 18 2 19 10 7 5 -8 10 -18 10 -22z m-526 13
c3 -4 -7 -19 -22 -32 -15 -13 -21 -17 -14 -9 6 8 12 22 12 32 0 19 15 24 24 9z
m913 -47 c-10 -10 -57 17 -57 33 0 13 3 14 12 5 17 -17 28 -15 29 6 0 10 5 6
11 -11 5 -16 8 -30 5 -33z m-121 5 c-4 -20 -1 -31 11 -37 14 -8 13 -11 -6 -17
-12 -4 -24 -5 -27 -3 -9 9 9 97 18 92 6 -4 7 -19 4 -35z m-216 27 c0 -3 -4 -8
-10 -11 -5 -3 -10 -1 -10 4 0 6 5 11 10 11 6 0 10 -2 10 -4z m253 -22 c3 -3 3
-13 0 -21 -5 -12 -7 -12 -14 -1 -15 23 -4 40 14 22z m37 -25 c0 -5 -4 -9 -10
-9 -5 0 -10 7 -10 16 0 8 5 12 10 9 6 -3 10 -10 10 -16z m-605 -9 c8 -26 -1
-40 -26 -40 -22 0 -34 22 -25 45 8 22 44 18 51 -5z m615 -26 c0 -8 -5 -12 -10
-9 -6 4 -8 11 -5 16 9 14 15 11 15 -7z m-84 -66 c4 -5 -4 -8 -17 -6 -12 1 -24
8 -26 15 -5 14 34 6 43 -9z m-53 -8 c3 -11 1 -23 -4 -26 -5 -3 -9 6 -9 20 0
31 6 34 13 6z m-618 0 c3 -5 2 -10 -4 -10 -5 0 -13 5 -16 10 -3 6 -2 10 4 10
5 0 13 -4 16 -10z m35 -10 c0 -5 -2 -10 -4 -10 -3 0 -8 5 -11 10 -3 6 -1 10 4
10 6 0 11 -4 11 -10z m622 -7 c-6 -2 -10 -9 -6 -14 3 -5 0 -9 -5 -9 -12 0 -14
13 -4 23 3 4 11 7 17 6 6 0 5 -3 -2 -6z m-632 -17 c0 -11 -19 -15 -25 -6 -3 5
1 10 9 10 9 0 16 -2 16 -4z m424 -118 c16 -26 -16 -57 -38 -38 -17 13 -21 42
-9 54 11 11 35 3 47 -16z m-274 2 c0 -5 -5 -10 -11 -10 -5 0 -7 5 -4 10 3 6 8
10 11 10 2 0 4 -4 4 -10z"/>
<path d="M2480 2780 c8 -5 20 -10 25 -10 6 0 3 5 -5 10 -8 5 -19 10 -25 10 -5
0 -3 -5 5 -10z"/>
<path d="M2228 2119 c-10 -5 -18 -16 -18 -22 0 -7 -25 -25 -55 -40 -43 -21
-60 -25 -75 -17 -26 14 -57 13 -72 -3 -16 -18 -76 -1 -99 27 -10 12 -22 17
-33 13 -43 -17 -23 -72 23 -62 42 8 85 -8 91 -35 3 -14 18 -31 32 -39 23 -13
29 -13 52 2 15 11 26 27 26 40 0 19 12 29 60 52 34 16 73 29 88 30 30 0 41 27
22 50 -14 17 -19 18 -42 4z"/>
<path d="M1545 2041 c-3 -5 -1 -12 5 -16 5 -3 10 1 10 9 0 18 -6 21 -15 7z"/>
<path d="M1557 2004 c-9 -10 2 -24 19 -24 8 0 14 7 14 15 0 15 -21 21 -33 9z"/>
<path d="M1605 2000 c3 -5 10 -10 16 -10 5 0 9 5 9 10 0 6 -7 10 -16 10 -8 0
-12 -4 -9 -10z"/>
<path d="M1452 1981 c2 -7 7 -12 11 -12 12 1 9 15 -3 20 -7 2 -11 -2 -8 -8z"/>
<path d="M1610 1896 c0 -9 5 -16 10 -16 6 0 10 4 10 9 0 6 -4 13 -10 16 -5 3
-10 -1 -10 -9z"/>
<path d="M1540 1885 c0 -8 5 -15 10 -15 6 0 10 7 10 15 0 8 -4 15 -10 15 -5 0
-10 -7 -10 -15z"/>
<path d="M600 1780 c-8 -14 -8 -26 0 -40 12 -23 35 -25 73 -7 28 12 39 34 12
23 -8 -3 -14 -2 -13 2 8 39 -53 57 -72 22z"/>
<path d="M665 1680 c-4 -7 -3 -16 3 -22 14 -14 45 -2 40 15 -6 16 -34 21 -43
7z"/>
<path d="M1560 860 c8 -5 20 -10 25 -10 6 0 3 5 -5 10 -8 5 -19 10 -25 10 -5
0 -3 -5 5 -10z"/>
<path d="M1244 717 c-3 -9 -3 -21 1 -27 3 -5 1 -10 -4 -10 -33 0 5 -29 44 -34
6 -1 15 -5 21 -9 7 -4 17 0 24 8 10 12 9 15 -8 15 -33 0 -54 11 -44 24 6 7 3
18 -9 30 -16 17 -19 17 -25 3z"/>
<path d="M1290 620 c0 -11 4 -20 9 -20 5 0 7 9 4 20 -3 11 -7 20 -9 20 -2 0
-4 -9 -4 -20z"/>
<path d="M2356 3674 c4 -17 1 -29 -10 -37 -25 -18 -10 -47 24 -47 15 0 33 -7
40 -15 7 -8 16 -12 21 -9 5 3 9 -2 9 -10 0 -9 8 -16 19 -16 16 0 20 8 23 42 4
55 28 61 68 18 34 -36 63 -35 58 2 -2 19 -10 24 -41 26 -26 2 -42 10 -53 28
-20 29 -38 30 -71 4 -14 -11 -37 -20 -50 -20 -22 0 -24 3 -18 30 5 24 3 30 -9
30 -13 0 -15 -6 -10 -26z m104 -62 c0 -27 -9 -32 -34 -19 -11 7 -23 13 -25 14
-11 6 14 23 35 23 17 0 24 -6 24 -18z"/>
<path d="M2304 3595 c21 -16 32 -13 21 4 -3 6 -14 11 -23 11 -15 -1 -15 -2 2
-15z"/>
<path d="M3096 3424 c-39 -38 -2 -101 52 -89 28 6 41 26 42 62 0 19 -30 43
-55 43 -13 0 -31 -7 -39 -16z"/>
<path d="M830 3198 c0 -4 -6 -8 -14 -8 -21 0 -31 -57 -15 -86 7 -13 18 -24 26
-24 7 0 13 -4 13 -8 0 -15 40 -6 63 13 22 19 77 29 77 13 0 -4 -4 -8 -10 -8
-5 0 -10 -5 -10 -11 0 -6 9 -8 23 -4 18 6 20 5 10 -6 -7 -7 -13 -16 -13 -20 0
-10 49 -8 56 2 3 5 0 9 -5 9 -6 0 -11 3 -11 8 0 4 27 7 59 8 l59 0 11 -37 c12
-41 31 -61 31 -34 0 15 2 15 15 1 8 -8 15 -19 15 -25 0 -6 4 -11 9 -11 12 0 8
51 -7 78 -11 19 -10 22 5 22 17 1 17 1 1 10 -9 6 -28 11 -43 12 -17 2 -28 10
-31 25 -8 31 -22 29 -16 -2 3 -18 0 -25 -12 -25 -9 0 -16 7 -16 15 0 8 -4 15
-10 15 -5 0 -10 3 -9 8 2 14 -13 52 -21 52 -5 0 -11 -8 -13 -17 -4 -17 -5 -17
-6 0 0 9 -4 17 -8 18 -5 0 -20 2 -35 4 -19 2 -32 -3 -42 -16 -13 -19 -14 -19
-45 8 -29 26 -81 39 -81 21z m190 -38 c0 -5 -5 -10 -11 -10 -5 0 -7 5 -4 10 3
6 8 10 11 10 2 0 4 -4 4 -10z m70 -70 c0 -5 -2 -10 -4 -10 -3 0 -8 5 -11 10
-3 6 -1 10 4 10 6 0 11 -4 11 -10z m100 -18 c0 -5 -7 -9 -15 -9 -8 0 -15 4
-15 9 0 4 7 8 15 8 8 0 15 -4 15 -8z m0 -32 c0 -5 -4 -10 -10 -10 -5 0 -10 5
-10 10 0 6 5 10 10 10 6 0 10 -4 10 -10z"/>
<path d="M1113 3035 c-14 -15 -17 -35 -7 -35 8 0 33 32 34 43 0 11 -14 8 -27
-8z"/>
<path d="M760 2910 c0 -5 4 -10 9 -10 6 0 13 5 16 10 3 6 -1 10 -9 10 -9 0
-16 -4 -16 -10z"/>
<path d="M793 2393 c9 -2 23 -2 30 0 6 3 -1 5 -18 5 -16 0 -22 -2 -12 -5z"/>
<path d="M555 2232 c-15 -39 1 -62 41 -62 22 0 40 46 24 65 -15 18 -57 16 -65
-3z"/>
<path d="M681 2247 c2 -1 13 -9 24 -17 19 -14 19 -14 6 3 -7 9 -18 17 -24 17
-6 0 -8 -1 -6 -3z"/>
<path d="M651 2189 c-1 -8 11 -26 27 -40 l27 -24 -21 25 c-12 14 -24 32 -27
40 -5 13 -6 13 -6 -1z"/>
<path d="M678 2183 c7 -3 16 -2 19 1 4 3 -2 6 -13 5 -11 0 -14 -3 -6 -6z"/>
<path d="M599 2113 c-1 -16 -1 -32 0 -36 2 -11 -42 3 -50 15 -3 5 -13 6 -23 2
-12 -5 -14 -10 -6 -20 7 -7 19 -10 27 -7 10 4 14 2 10 -4 -5 -7 0 -9 12 -6 11
3 21 -2 24 -11 7 -17 -7 -31 -22 -22 -5 3 -14 -1 -21 -9 -7 -8 -21 -15 -31
-15 -25 0 -32 -15 -14 -30 12 -10 16 -9 21 4 3 9 14 16 23 16 9 0 22 5 27 10
8 8 11 2 12 -19 0 -17 -4 -33 -9 -37 -12 -7 -2 -24 15 -24 8 0 12 17 12 54 -1
30 2 57 5 60 3 3 20 2 37 -3 42 -12 41 1 -1 21 -30 14 -33 19 -29 52 3 22 0
36 -7 36 -6 0 -12 -12 -12 -27z"/>
<path d="M700 2051 c0 -31 24 -43 38 -20 12 19 11 19 -9 8 -20 -10 -21 -9 -16
10 3 11 1 21 -4 21 -5 0 -9 -8 -9 -19z"/>
<path d="M2554 2025 c-4 -8 -4 -21 -1 -29 10 -25 -15 -85 -36 -88 -11 -2 -29
-14 -39 -29 -26 -35 -11 -77 31 -85 24 -5 34 -16 54 -64 14 -32 23 -67 21 -77
-6 -23 20 -48 41 -39 29 11 30 38 2 60 -14 12 -35 43 -47 70 -17 42 -19 54 -9
78 9 21 9 35 0 56 -14 34 -6 77 18 95 27 19 34 37 21 52 -16 19 -49 19 -56 0z"/>
<path d="M2696 1972 c-10 -30 4 -52 36 -59 49 -10 83 -91 47 -114 -11 -7 -10
-9 4 -9 10 0 22 -12 27 -26 l10 -25 25 29 c28 33 31 52 13 70 -9 9 -9 15 0 24
26 26 7 78 -28 78 -9 0 -25 -10 -36 -21 l-19 -21 -5 43 c-5 41 -7 44 -37 47
-24 2 -33 -1 -37 -16z"/>
<path d="M2677 1793 c-4 -3 -7 -17 -7 -30 0 -18 5 -23 25 -23 14 0 28 7 31 15
11 27 -30 58 -49 38z"/>
<path d="M2714 1726 c-7 -19 3 -36 22 -36 10 0 14 8 12 22 -4 26 -26 36 -34
14z"/>
<path d="M2875 1660 c-4 -7 -3 -16 3 -22 14 -14 45 -2 40 15 -6 16 -34 21 -43
7z"/>
<path d="M2096 1504 c-29 -29 -18 -66 25 -82 31 -12 45 -5 58 29 19 52 -44 93
-83 53z"/>
<path d="M2415 1391 c-8 -15 3 -31 21 -31 9 0 14 7 12 17 -4 20 -24 28 -33 14z"/>
<path d="M2105 1321 c-8 -15 3 -31 21 -31 9 0 14 7 12 17 -4 20 -24 28 -33 14z"/>
<path d="M2384 1269 c-3 -6 -2 -15 4 -21 13 -13 32 -2 32 18 0 16 -26 19 -36
3z"/>
<path d="M2690 1179 c0 -15 18 -19 23 -6 3 8 -1 14 -9 14 -8 0 -14 -4 -14 -8z"/>
<path d="M2373 1128 c1 -23 8 -43 14 -46 19 -6 29 28 12 39 -12 8 -12 10 0 18
16 10 6 31 -14 31 -9 0 -13 -13 -12 -42z"/>
<path d="M1426 1133 c-6 -14 -5 -15 5 -6 7 7 10 15 7 18 -3 3 -9 -2 -12 -12z"/>
<path d="M1565 1120 c-3 -5 1 -10 10 -10 9 0 13 5 10 10 -3 6 -8 10 -10 10 -2
0 -7 -4 -10 -10z"/>
<path d="M1698 1116 c-47 -35 2 -109 55 -85 14 7 28 19 30 28 5 25 -13 59 -37
65 -28 8 -28 7 -48 -8z"/>
<path d="M2425 1099 c-11 -16 -1 -19 13 -3 7 8 8 14 3 14 -5 0 -13 -5 -16 -11z"/>
<path d="M2262 1063 c2 -10 10 -18 18 -18 8 0 16 8 18 18 2 12 -3 17 -18 17
-15 0 -20 -5 -18 -17z"/>
<path d="M1361 1001 c-7 -5 -12 -14 -10 -20 2 -6 10 -2 17 9 14 22 13 23 -7
11z"/>
<path d="M2196 923 c4 -16 11 -32 16 -38 7 -7 8 -3 4 12 -4 12 -2 24 4 28 13
8 3 25 -16 25 -11 0 -13 -7 -8 -27z"/>
<path d="M2662 910 c0 -14 2 -19 5 -12 2 6 2 18 0 25 -3 6 -5 1 -5 -13z"/>
<path d="M1400 775 c7 -9 15 -13 17 -11 7 7 -7 26 -19 26 -6 0 -6 -6 2 -15z"/>
<path d="M2390 520 c0 -5 7 -10 15 -10 8 0 15 5 15 10 0 6 -7 10 -15 10 -8 0
-15 -4 -15 -10z"/>
<path d="M1126 481 c-17 -18 -15 -60 2 -62 4 0 15 -2 24 -4 21 -4 29 17 21 55
-6 35 -23 38 -47 11z m23 -41 c0 -10 -3 -8 -9 5 -12 27 -12 43 0 25 5 -8 9
-22 9 -30z m18 -2 c-3 -8 -6 -5 -6 6 -1 11 2 17 5 13 3 -3 4 -12 1 -19z"/>
<path d="M2320 446 c0 -2 8 -10 18 -17 15 -13 16 -12 3 4 -13 16 -21 21 -21
13z"/>
<path d="M1247 423 c-3 -5 -1 -17 4 -28 7 -17 8 -17 8 8 1 27 -4 34 -12 20z"/>
<path d="M1331 312 c-1 -24 -7 -24 -58 -5 -7 3 -13 1 -13 -5 0 -5 10 -13 23
-16 21 -6 21 -7 5 -20 -10 -7 -18 -19 -18 -27 0 -8 11 0 25 16 16 20 27 26 32
19 5 -7 16 -8 28 -3 11 4 15 8 8 8 -6 1 -16 13 -21 29 -10 25 -10 26 -11 4z"/>
<path d="M1330 240 c0 -5 5 -10 11 -10 5 0 7 5 4 10 -3 6 -8 10 -11 10 -2 0
-4 -4 -4 -10z"/>
<path d="M1670 182 c0 -23 4 -42 9 -42 5 0 7 9 4 19 -4 16 -1 19 19 14 20 -5
21 -4 8 8 -8 8 -21 21 -27 29 -11 11 -13 7 -13 -28z"/>
<path d="M1716 134 c-30 -29 -18 -66 26 -83 29 -11 50 4 62 45 13 44 -54 73
-88 38z"/>
<path d="M1625 84 c4 -11 8 -27 9 -37 0 -22 18 -16 32 11 11 22 11 22 23 -4
14 -31 23 -28 15 4 -4 12 -16 24 -28 27 -61 18 -59 18 -51 -1z m35 -20 c0 -8
-4 -12 -10 -9 -5 3 -10 10 -10 16 0 5 5 9 10 9 6 0 10 -7 10 -16z"/>
<path d="M1630 10 c0 -5 5 -10 11 -10 5 0 7 5 4 10 -3 6 -8 10 -11 10 -2 0 -4
-4 -4 -10z"/>
<path d="M1660 10 c0 -5 7 -10 15 -10 8 0 15 5 15 10 0 6 -7 10 -15 10 -8 0
-15 -4 -15 -10z"/>
</g>
</svg>
